<svg width="17" height="17" viewBox="0 0 17 17" fill="none" xmlns="http://www.w3.org/2000/svg">
<path d="M15.4135 0.658203H1.18036C0.838065 0.658203 0.561523 0.934745 0.561523 1.27704V15.5102C0.561523 15.8525 0.838065 16.1291 1.18036 16.1291H15.4135C15.7558 16.1291 16.0324 15.8525 16.0324 15.5102V1.27704C16.0324 0.934745 15.7558 0.658203 15.4135 0.658203ZM13.6267 5.17376H12.3909C11.4221 5.17376 11.2345 5.63401 11.2345 6.31086V7.80187H13.5474L13.2457 10.136H11.2345V16.1291H8.82296V10.138H6.80594V7.80187H8.82296V6.08074C8.82296 4.08306 10.0432 2.9943 11.8262 2.9943C12.681 2.9943 13.4139 3.05812 13.6286 3.08713V5.17376H13.6267Z" fill="url(#paint0_linear_13224_95067)"/>
<defs>
<linearGradient id="paint0_linear_13224_95067" x1="8.29695" y1="0.658203" x2="8.29695" y2="16.1291" gradientUnits="userSpaceOnUse">
<stop stop-color="#2685CA"/>
<stop offset="1" stop-color="#6F4BBB"/>
</linearGradient>
</defs>
</svg>
