<svg width="19" height="18" viewBox="0 0 19 18" fill="none" xmlns="http://www.w3.org/2000/svg">
<path d="M9.63955 4.5187C12.0762 4.5187 14.0874 6.52991 14.0874 8.96657C14.0874 11.4419 12.0762 13.4144 9.63955 13.4144C7.16421 13.4144 5.19168 11.4419 5.19168 8.96657C5.19168 6.52991 7.16421 4.5187 9.63955 4.5187ZM9.63955 11.8674C11.2253 11.8674 12.5017 10.591 12.5017 8.96657C12.5017 7.38081 11.2253 6.10446 9.63955 6.10446C8.01511 6.10446 6.73876 7.38081 6.73876 8.96657C6.73876 10.591 8.05379 11.8674 9.63955 11.8674ZM15.2864 4.36399C15.2864 4.94415 14.8223 5.40828 14.2421 5.40828C13.662 5.40828 13.1978 4.94415 13.1978 4.36399C13.1978 3.78384 13.662 3.31971 14.2421 3.31971C14.8223 3.31971 15.2864 3.78384 15.2864 4.36399ZM18.2259 5.40828C18.3032 6.83933 18.3032 11.1325 18.2259 12.5635C18.1485 13.9559 17.8391 15.1549 16.8335 16.1992C15.8279 17.2048 14.5902 17.5142 13.1978 17.5916C11.7668 17.6689 7.47363 17.6689 6.04258 17.5916C4.6502 17.5142 3.45121 17.2048 2.40693 16.1992C1.40132 15.1549 1.09191 13.9559 1.01455 12.5635C0.937197 11.1325 0.937197 6.83933 1.01455 5.40828C1.09191 4.0159 1.40132 2.77823 2.40693 1.77263C3.45121 0.767022 4.6502 0.457605 6.04258 0.380251C7.47363 0.302897 11.7668 0.302897 13.1978 0.380251C14.5902 0.457605 15.8279 0.767022 16.8335 1.77263C17.8391 2.77823 18.1485 4.0159 18.2259 5.40828ZM16.3694 14.072C16.8335 12.9503 16.7175 10.2429 16.7175 8.96657C16.7175 7.7289 16.8335 5.02151 16.3694 3.86119C16.06 3.12633 15.4798 2.50749 14.7449 2.23675C13.5846 1.77263 10.8772 1.88866 9.63955 1.88866C8.3632 1.88866 5.65581 1.77263 4.53417 2.23675C3.76063 2.54617 3.18047 3.12633 2.87105 3.86119C2.40693 5.02151 2.52296 7.7289 2.52296 8.96657C2.52296 10.2429 2.40693 12.9503 2.87105 14.072C3.18047 14.8455 3.76063 15.4257 4.53417 15.7351C5.65581 16.1992 8.3632 16.0832 9.63955 16.0832C10.8772 16.0832 13.5846 16.1992 14.7449 15.7351C15.4798 15.4257 16.0986 14.8455 16.3694 14.072Z" fill="url(#paint0_linear_13224_95065)"/>
<defs>
<linearGradient id="paint0_linear_13224_95065" x1="9.30322" y1="-0.607422" x2="9.30322" y2="19.3926" gradientUnits="userSpaceOnUse">
<stop stop-color="#2685CA"/>
<stop offset="1" stop-color="#6F4BBB"/>
</linearGradient>
</defs>
</svg>
