<svg width="54" height="15" viewBox="0 0 54 15" fill="none" xmlns="http://www.w3.org/2000/svg">
<path d="M13.8282 13.0382L9.98557 9.44403C9.88686 9.3517 9.73032 9.35512 9.63592 9.45165L8.78125 10.3256L12.6238 13.9198C12.7225 14.0121 12.8791 14.0087 12.9735 13.9122L13.8282 13.0382Z" fill="#5D5FEF"/>
<path d="M6.42574 12.6749C9.49888 12.6749 11.9901 10.2384 11.9901 7.23295C11.9901 4.22745 9.49888 1.79102 6.42574 1.79102C3.3526 1.79102 0.861328 4.22745 0.861328 7.23295C0.861328 10.2384 3.3526 12.6749 6.42574 12.6749Z" fill="url(#paint0_linear_13224_95068)"/>
<path d="M10.0688 7.29943L10.0688 7.29944C10.0545 9.24504 8.43025 10.811 6.44086 10.797L6.44085 10.797C4.45146 10.7831 2.85031 9.19452 2.86457 7.24892L2.86457 7.2489C2.87884 5.3033 4.50312 3.73739 6.49251 3.75134L6.49252 3.75134C8.48191 3.7653 10.0831 5.35383 10.0688 7.29943Z" fill="white"/>
<path d="M5.34434 8.59227C5.45151 8.69708 5.5628 8.77569 5.6782 8.82809C5.79774 8.87646 5.91108 8.90064 6.01825 8.90064C6.21609 8.90064 6.38509 8.82204 6.52523 8.66483C6.66537 8.50762 6.73544 8.28187 6.73544 7.98761V6.56061L7.47736 5.97409H6.73544V5.29688H7.47736V8.0118C7.47736 8.3101 7.4382 8.56204 7.35989 8.76762C7.2857 8.9732 7.18471 9.13848 7.05694 9.26344C6.93329 9.3884 6.78697 9.47709 6.61797 9.52949C6.4531 9.58593 6.27999 9.61414 6.09862 9.61414C6.03268 9.61414 5.95849 9.60608 5.87605 9.58996C5.79361 9.57786 5.70911 9.5577 5.62256 9.52949C5.54012 9.50128 5.45769 9.465 5.37525 9.42065C5.29694 9.37631 5.22687 9.32391 5.16504 9.26344L5.34434 8.59227Z" fill="#5049E1"/>
<path d="M6.42529 5.27881L7.66192 5.27148V5.59586V5.98621L6.42529 5.99713V5.59586V5.27881Z" fill="white"/>
<path d="M6.81393 5.66412C6.81244 5.86661 6.97909 6.03194 7.18613 6.03339C7.39318 6.03484 7.56223 5.87187 7.56372 5.66938C7.5652 5.46689 7.39856 5.30156 7.19151 5.3001C6.98446 5.29865 6.81541 5.46163 6.81393 5.66412Z" fill="#21C4FF"/>
<path d="M17.8531 7.84291C17.8531 8.19645 17.7849 8.52921 17.6481 8.84116C17.5115 9.15015 17.3246 9.42051 17.0876 9.65224C16.8537 9.88101 16.5773 10.0622 16.2582 10.1959C15.9423 10.3296 15.6036 10.3965 15.2422 10.3965C15.0234 10.3965 14.8047 10.3697 14.5859 10.3163V8.94367C14.6831 9.00012 14.788 9.04319 14.9004 9.07291C15.0128 9.10261 15.1267 9.11747 15.2422 9.11747C15.4213 9.11747 15.59 9.08478 15.7479 9.01943C15.9089 8.95109 16.0486 8.85899 16.1671 8.74312C16.2857 8.62725 16.3783 8.49207 16.4451 8.33758C16.5149 8.18309 16.5499 8.0182 16.5499 7.84291V4.00586L17.8531 4.00586V7.84291Z" fill="url(#paint1_linear_13224_95068)"/>
<path d="M23.4569 7.96823C23.4569 8.32475 23.3915 8.6575 23.2609 8.96648C23.1303 9.2725 22.9525 9.53841 22.7277 9.7642C22.5029 9.98703 22.2387 10.1638 21.9348 10.2945C21.6341 10.4223 21.3106 10.4861 20.9643 10.4861C20.621 10.4861 20.2974 10.4223 19.9937 10.2945C19.6929 10.1638 19.4286 9.98703 19.2007 9.7642C18.9759 9.53841 18.7982 9.2725 18.6677 8.96648C18.537 8.6575 18.4717 8.32475 18.4717 7.96823C18.4717 7.60577 18.537 7.27005 18.6677 6.96106C18.7982 6.65208 18.9759 6.38617 19.2007 6.16336C19.4286 5.93755 19.6929 5.76079 19.9937 5.63303C20.2974 5.50528 20.621 5.44141 20.9643 5.44141C21.3106 5.44141 21.6341 5.50231 21.9348 5.62412C22.2387 5.74296 22.5029 5.91379 22.7277 6.13662C22.9525 6.35647 23.1303 6.62237 23.2609 6.93432C23.3915 7.24331 23.4569 7.58795 23.4569 7.96823ZM22.2037 7.96823C22.2037 7.77215 22.1703 7.59537 22.1035 7.43791C22.0397 7.27748 21.9515 7.14081 21.8391 7.02791C21.7267 6.91205 21.5947 6.82439 21.4427 6.76498C21.2938 6.70259 21.1344 6.67139 20.9643 6.67139C20.7941 6.67139 20.6331 6.70259 20.4813 6.76498C20.3324 6.82439 20.2017 6.91205 20.0893 7.02791C19.98 7.14081 19.8934 7.27748 19.8296 7.43791C19.7658 7.59537 19.7339 7.77215 19.7339 7.96823C19.7339 8.15243 19.7658 8.32327 19.8296 8.48073C19.8934 8.63819 19.98 8.77486 20.0893 8.89073C20.2017 9.0066 20.3324 9.0987 20.4813 9.16703C20.6331 9.23239 20.7941 9.26508 20.9643 9.26508C21.1344 9.26508 21.2938 9.23388 21.4427 9.17149C21.5947 9.1091 21.7267 9.02145 21.8391 8.90856C21.9515 8.79566 22.0397 8.65899 22.1035 8.49855C22.1703 8.33812 22.2037 8.16134 22.2037 7.96823Z" fill="url(#paint2_linear_13224_95068)"/>
<path d="M28.9822 7.96719C28.9822 8.34155 28.9169 8.6832 28.7863 8.99218C28.6556 9.30118 28.4779 9.56708 28.2531 9.7899C28.0283 10.0098 27.7641 10.1806 27.4602 10.3024C27.1595 10.4242 26.8359 10.4851 26.4897 10.4851C26.1464 10.4851 25.8228 10.4227 25.519 10.2979C25.2183 10.1732 24.954 9.99935 24.7261 9.77654C24.5013 9.55371 24.3236 9.28929 24.1931 8.98327C24.0624 8.67429 23.9971 8.3356 23.9971 7.96719V3.72461L25.2456 3.72461V5.95286C25.3125 5.86967 25.393 5.7954 25.4871 5.73003C25.5844 5.66467 25.6877 5.61119 25.797 5.56959C25.9094 5.52801 26.0249 5.49681 26.1433 5.47602C26.2618 5.45224 26.3773 5.44037 26.4897 5.44037C26.8359 5.44037 27.1595 5.50424 27.4602 5.632C27.7641 5.75677 28.0283 5.93206 28.2531 6.15786C28.4779 6.38365 28.6556 6.65104 28.7863 6.96002C28.9169 7.26604 28.9822 7.60176 28.9822 7.96719ZM27.7291 7.96719C27.7291 7.783 27.6957 7.61216 27.6288 7.45469C27.5651 7.29426 27.4769 7.15611 27.3645 7.04025C27.2521 6.92437 27.1199 6.83376 26.9681 6.76839C26.8192 6.70304 26.6597 6.67035 26.4897 6.67035C26.3195 6.67035 26.1585 6.70749 26.0066 6.78177C25.8578 6.85307 25.7271 6.94963 25.6147 7.07143C25.5023 7.19027 25.4143 7.32843 25.3505 7.48589C25.2867 7.64038 25.2548 7.80082 25.2548 7.96719C25.2548 8.15139 25.2867 8.32223 25.3505 8.47969C25.4143 8.63715 25.5023 8.77382 25.6147 8.88969C25.7271 9.00556 25.8578 9.09766 26.0066 9.16599C26.1585 9.23135 26.3195 9.26404 26.4897 9.26404C26.6597 9.26404 26.8192 9.23135 26.9681 9.16599C27.1199 9.09766 27.2521 9.00556 27.3645 8.88969C27.4769 8.77382 27.5651 8.63715 27.6288 8.47969C27.6957 8.32223 27.7291 8.15139 27.7291 7.96719Z" fill="url(#paint3_linear_13224_95068)"/>
<path d="M29.8286 11.5468V3.69727H32.5492C33.0375 3.69727 33.4687 3.78288 33.8429 3.9541C34.2234 4.12533 34.5215 4.379 34.7371 4.71511C34.9527 5.05122 35.0605 5.4666 35.0605 5.96125C35.0605 6.44322 34.9495 6.85226 34.7276 7.18837C34.512 7.52448 34.2139 7.78131 33.8334 7.95888C33.4592 8.13011 33.0312 8.21572 32.5492 8.21572H31.3031V10.7841L29.8286 11.5468ZM31.3031 6.93153H32.5587C32.768 6.93153 32.9487 6.89031 33.1009 6.80786C33.2531 6.72542 33.3704 6.61127 33.4529 6.46541C33.5417 6.31955 33.5861 6.1515 33.5861 5.96125C33.5861 5.76466 33.5417 5.59343 33.4529 5.44757C33.3704 5.30171 33.2531 5.18756 33.1009 5.10512C32.9487 5.02268 32.768 4.98146 32.5587 4.98146H31.3031V6.93153Z" fill="url(#paint4_linear_13224_95068)"/>
<path d="M36.9333 10.3979H35.6802V3.72656L36.9333 3.72656V10.3979Z" fill="url(#paint5_linear_13224_95068)"/>
<path d="M42.5633 10.397H42.2625L41.7795 9.74192C41.661 9.8459 41.535 9.94395 41.4014 10.036C41.2707 10.1252 41.1324 10.2039 40.9866 10.2722C40.8408 10.3376 40.6905 10.3896 40.5355 10.4282C40.3836 10.4668 40.2288 10.4861 40.0707 10.4861C39.7275 10.4861 39.4039 10.4297 39.1002 10.3168C38.7993 10.2039 38.5351 10.0405 38.3073 9.82659C38.0825 9.60971 37.9047 9.34529 37.7741 9.03334C37.6435 8.72138 37.5781 8.36635 37.5781 7.96823C37.5781 7.59686 37.6435 7.25668 37.7741 6.9477C37.9047 6.63574 38.0825 6.36835 38.3073 6.14553C38.5351 5.9227 38.7993 5.75039 39.1002 5.62857C39.4039 5.5038 39.7275 5.44141 40.0707 5.44141C40.2288 5.44141 40.3852 5.46071 40.5401 5.49933C40.6951 5.53796 40.8454 5.59143 40.9912 5.65977C41.137 5.7281 41.2752 5.80831 41.4058 5.90041C41.5395 5.99252 41.6641 6.09204 41.7795 6.19901L42.2625 5.63303H42.5633V10.397ZM41.3102 7.96823C41.3102 7.80186 41.2767 7.64142 41.21 7.48693C41.1461 7.32947 41.058 7.19131 40.9456 7.07247C40.8332 6.95067 40.7011 6.85411 40.5491 6.78281C40.4004 6.70853 40.2409 6.67139 40.0707 6.67139C39.9006 6.67139 39.7396 6.69962 39.5877 6.75607C39.4389 6.81252 39.3083 6.89571 39.1959 7.00564C39.0864 7.11556 38.9999 7.25223 38.9361 7.41563C38.8723 7.57606 38.8404 7.76026 38.8404 7.96823C38.8404 8.17621 38.8723 8.36189 38.9361 8.5253C38.9999 8.68573 39.0864 8.82091 39.1959 8.93083C39.3083 9.04076 39.4389 9.12395 39.5877 9.1804C39.7396 9.23685 39.9006 9.26508 40.0707 9.26508C40.2409 9.26508 40.4004 9.22943 40.5491 9.15811C40.7011 9.08385 40.8332 8.98728 40.9456 8.86845C41.058 8.74663 41.1461 8.60848 41.21 8.45399C41.2767 8.29653 41.3102 8.13461 41.3102 7.96823Z" fill="url(#paint6_linear_13224_95068)"/>
<path d="M47.2772 10.3968H43.208L45.2631 6.84497H43.208V5.63281L47.2772 5.63281L44.2127 10.3968H45.3256L45.6965 9.18463H47.2772V10.3968Z" fill="url(#paint7_linear_13224_95068)"/>
<path d="M52.5759 10.397H52.2752L51.7922 9.74192C51.6736 9.8459 51.5476 9.94395 51.4139 10.036C51.2834 10.1252 51.1451 10.2039 50.9992 10.2722C50.8534 10.3376 50.7031 10.3896 50.5481 10.4282C50.3963 10.4668 50.2413 10.4861 50.0833 10.4861C49.74 10.4861 49.4166 10.4297 49.1128 10.3168C48.812 10.2039 48.5477 10.0405 48.3199 9.82659C48.0951 9.60971 47.9174 9.34529 47.7867 9.03334C47.6561 8.72138 47.5908 8.36635 47.5908 7.96823C47.5908 7.59686 47.6561 7.25668 47.7867 6.9477C47.9174 6.63574 48.0951 6.36835 48.3199 6.14553C48.5477 5.9227 48.812 5.75039 49.1128 5.62857C49.4166 5.5038 49.74 5.44141 50.0833 5.44141C50.2413 5.44141 50.3978 5.46071 50.5527 5.49933C50.7076 5.53796 50.858 5.59143 51.0038 5.65977C51.1497 5.7281 51.2878 5.80831 51.4185 5.90041C51.5522 5.99252 51.6767 6.09204 51.7922 6.19901L52.2752 5.63303H52.5759V10.397ZM51.3228 7.96823C51.3228 7.80186 51.2894 7.64142 51.2225 7.48693C51.1587 7.32947 51.0707 7.19131 50.9583 7.07247C50.8459 6.95067 50.7137 6.85411 50.5618 6.78281C50.413 6.70853 50.2535 6.67139 50.0833 6.67139C49.9133 6.67139 49.7522 6.69962 49.6003 6.75607C49.4514 6.81252 49.3209 6.89571 49.2085 7.00564C49.099 7.11556 49.0125 7.25223 48.9487 7.41563C48.8849 7.57606 48.853 7.76026 48.853 7.96823C48.853 8.17621 48.8849 8.36189 48.9487 8.5253C49.0125 8.68573 49.099 8.82091 49.2085 8.93083C49.3209 9.04076 49.4514 9.12395 49.6003 9.1804C49.7522 9.23685 49.9133 9.26508 50.0833 9.26508C50.2535 9.26508 50.413 9.22943 50.5618 9.15811C50.7137 9.08385 50.8459 8.98728 50.9583 8.86845C51.0707 8.74663 51.1587 8.60848 51.2225 8.45399C51.2894 8.29653 51.3228 8.13461 51.3228 7.96823Z" fill="url(#paint8_linear_13224_95068)"/>
<defs>
<linearGradient id="paint0_linear_13224_95068" x1="0.861328" y1="5.19222" x2="9.7682" y2="11.6374" gradientUnits="userSpaceOnUse">
<stop stop-color="#24BEFD"/>
<stop offset="0.52925" stop-color="#3A99F7"/>
<stop offset="1" stop-color="#5D5FEF"/>
</linearGradient>
<linearGradient id="paint1_linear_13224_95068" x1="16.7499" y1="7.95772" x2="51.1874" y2="7.95772" gradientUnits="userSpaceOnUse">
<stop stop-color="#5049E1"/>
<stop offset="0.328025" stop-color="#436AE9"/>
<stop offset="0.421003" stop-color="#2F9EF6"/>
<stop offset="0.99437" stop-color="#21C4FF"/>
</linearGradient>
<linearGradient id="paint2_linear_13224_95068" x1="16.8898" y1="7.95826" x2="51.3273" y2="7.95826" gradientUnits="userSpaceOnUse">
<stop stop-color="#5049E1"/>
<stop offset="0.328025" stop-color="#436AE9"/>
<stop offset="0.421003" stop-color="#2F9EF6"/>
<stop offset="0.99437" stop-color="#21C4FF"/>
</linearGradient>
<linearGradient id="paint3_linear_13224_95068" x1="17.0288" y1="7.95722" x2="51.4663" y2="7.95722" gradientUnits="userSpaceOnUse">
<stop stop-color="#5049E1"/>
<stop offset="0.328025" stop-color="#436AE9"/>
<stop offset="0.421003" stop-color="#2F9EF6"/>
<stop offset="0.99437" stop-color="#21C4FF"/>
</linearGradient>
<linearGradient id="paint4_linear_13224_95068" x1="16.7764" y1="6.32454" x2="52.8526" y2="6.32454" gradientUnits="userSpaceOnUse">
<stop stop-color="#5049E1"/>
<stop offset="0.328025" stop-color="#436AE9"/>
<stop offset="0.421003" stop-color="#2F9EF6"/>
<stop offset="0.99437" stop-color="#21C4FF"/>
</linearGradient>
<linearGradient id="paint5_linear_13224_95068" x1="17.7206" y1="7.95918" x2="52.1581" y2="7.95918" gradientUnits="userSpaceOnUse">
<stop stop-color="#5049E1"/>
<stop offset="0.328025" stop-color="#436AE9"/>
<stop offset="0.421003" stop-color="#2F9EF6"/>
<stop offset="0.99437" stop-color="#21C4FF"/>
</linearGradient>
<linearGradient id="paint6_linear_13224_95068" x1="17.8595" y1="7.95826" x2="52.297" y2="7.95826" gradientUnits="userSpaceOnUse">
<stop stop-color="#5049E1"/>
<stop offset="0.328025" stop-color="#436AE9"/>
<stop offset="0.421003" stop-color="#2F9EF6"/>
<stop offset="0.99437" stop-color="#21C4FF"/>
</linearGradient>
<linearGradient id="paint7_linear_13224_95068" x1="17.9981" y1="7.95804" x2="52.4357" y2="7.95804" gradientUnits="userSpaceOnUse">
<stop stop-color="#5049E1"/>
<stop offset="0.328025" stop-color="#436AE9"/>
<stop offset="0.421003" stop-color="#2F9EF6"/>
<stop offset="0.99437" stop-color="#21C4FF"/>
</linearGradient>
<linearGradient id="paint8_linear_13224_95068" x1="18.1384" y1="7.95826" x2="52.5759" y2="7.95826" gradientUnits="userSpaceOnUse">
<stop stop-color="#5049E1"/>
<stop offset="0.328025" stop-color="#436AE9"/>
<stop offset="0.421003" stop-color="#2F9EF6"/>
<stop offset="0.99437" stop-color="#21C4FF"/>
</linearGradient>
</defs>
</svg>
