<svg width="17" height="17" viewBox="0 0 17 17" fill="none" xmlns="http://www.w3.org/2000/svg">
<path d="M14.938 0.28125C15.4164 0.28125 15.8752 0.47129 16.2134 0.809562C16.5517 1.14783 16.7418 1.60663 16.7418 2.08502V14.7114C16.7418 15.1898 16.5517 15.6486 16.2134 15.9869C15.8752 16.3251 15.4164 16.5152 14.938 16.5152H2.31158C1.83319 16.5152 1.3744 16.3251 1.03612 15.9869C0.697852 15.6486 0.507813 15.1898 0.507812 14.7114V2.08502C0.507812 1.60663 0.697852 1.14783 1.03612 0.809562C1.3744 0.47129 1.83319 0.28125 2.31158 0.28125H14.938ZM14.487 14.2605V9.48048C14.487 8.70071 14.1773 7.95287 13.6259 7.40148C13.0745 6.8501 12.3267 6.54034 11.5469 6.54034C10.7803 6.54034 9.88742 7.00932 9.45452 7.71279V6.71169H6.93826V14.2605H9.45452V9.81418C9.45452 9.11973 10.0137 8.55154 10.7081 8.55154C11.043 8.55154 11.3642 8.68457 11.601 8.92136C11.8378 9.15815 11.9708 9.47931 11.9708 9.81418V14.2605H14.487ZM4.00713 5.29573C4.40898 5.29573 4.79436 5.1361 5.07851 4.85195C5.36266 4.5678 5.5223 4.18241 5.5223 3.78057C5.5223 2.94181 4.84588 2.25638 4.00713 2.25638C3.60289 2.25638 3.21521 2.41696 2.92937 2.7028C2.64353 2.98864 2.48294 3.37633 2.48294 3.78057C2.48294 4.61932 3.16838 5.29573 4.00713 5.29573ZM5.26075 14.2605V6.71169H2.76253V14.2605H5.26075Z" fill="url(#paint0_linear_13224_95061)"/>
<defs>
<linearGradient id="paint0_linear_13224_95061" x1="8.62478" y1="0.28125" x2="8.62478" y2="16.5152" gradientUnits="userSpaceOnUse">
<stop stop-color="#2685CA"/>
<stop offset="1" stop-color="#6F4BBB"/>
</linearGradient>
</defs>
</svg>
