<svg width="118" height="100" viewBox="0 0 118 100" fill="none" xmlns="http://www.w3.org/2000/svg">
<g opacity="0.45">
<path d="M77.1923 84.9736L78.0881 84.839L78.0915 84.8386C78.1567 84.8287 78.2174 84.871 78.2269 84.9327C78.2365 84.9946 78.1913 85.0527 78.126 85.0624C78.1253 85.0626 78.124 85.0628 78.1232 85.0628L77.2181 85.1779C77.1587 85.1855 77.1045 85.1459 77.0972 85.0894C77.0901 85.0339 77.1309 84.9827 77.1891 84.974L77.1923 84.9736Z" fill="white"/>
<path d="M80.3479 84.395L82.0812 83.9488L82.0895 83.9467C82.1773 83.9241 82.267 83.9731 82.2898 84.0563C82.3127 84.1394 82.2599 84.2251 82.1721 84.2478C82.1713 84.2479 82.1698 84.2484 82.169 84.2485L80.4115 84.6667C80.3326 84.6855 80.2533 84.6401 80.2344 84.5654C80.2158 84.4917 80.263 84.4169 80.3402 84.3969L80.3479 84.395Z" fill="white"/>
<path d="M84.2702 83.2552L85.9354 82.6177L85.9453 82.6138C86.0486 82.5743 86.1652 82.6214 86.2056 82.719C86.2461 82.8166 86.1951 82.9277 86.0919 82.9672C86.0911 82.9675 86.0893 82.9682 86.0885 82.9685L84.3928 83.5851C84.2971 83.6198 84.1908 83.5747 84.1552 83.4843C84.1201 83.395 84.1673 83.2947 84.2608 83.2588L84.2702 83.2552Z" fill="white"/>
<path d="M88.0169 81.6774L89.585 80.8494L89.5967 80.8432C89.7119 80.7824 89.8559 80.8211 89.9186 80.9296C89.9813 81.0382 89.9388 81.1755 89.8237 81.2363C89.8229 81.2368 89.8208 81.2377 89.82 81.2382L88.2141 82.0514C88.1058 82.1062 87.9721 82.0679 87.9156 81.9657C87.8598 81.8646 87.9002 81.7391 88.0058 81.6832L88.0169 81.6774Z" fill="white"/>
<path d="M91.5259 79.6693L92.9689 78.6596L92.9816 78.6508C93.0997 78.5682 93.2648 78.5913 93.3504 78.7024C93.4361 78.8135 93.4098 78.9705 93.2917 79.0531L93.2894 79.0548L91.8101 80.0668C91.6956 80.1451 91.5368 80.1212 91.4556 80.0133C91.3749 79.9062 91.401 79.7566 91.5136 79.6778L91.5259 79.6693Z" fill="white"/>
<path d="M94.7235 77.2513L96.0082 76.0667L96.0208 76.0553C96.1348 75.95 96.3161 75.9515 96.4256 76.0587C96.5352 76.1658 96.5314 76.3379 96.4173 76.4431L96.415 76.4451L95.0923 77.639C94.9809 77.7394 94.806 77.7362 94.7014 77.6316C94.5976 77.5278 94.6023 77.3632 94.7113 77.2626L94.7235 77.2513Z" fill="white"/>
<path d="M97.5448 74.4398L98.6475 73.1013L98.6589 73.0873C98.7645 72.9591 98.9586 72.9353 99.0924 73.034C99.2263 73.1328 99.2492 73.3168 99.1436 73.445L99.1415 73.4475L98.0007 74.802C97.8972 74.9251 97.709 74.9462 97.5806 74.8493C97.453 74.753 97.4323 74.5765 97.5335 74.4535L97.5448 74.4398Z" fill="white"/>
<path d="M99.9356 71.2965L100.836 69.8303L100.846 69.8141C100.939 69.6634 101.142 69.6112 101.299 69.6972C101.457 69.7834 101.51 69.9754 101.417 70.1261L101.415 70.129L100.478 71.6178C100.387 71.763 100.189 71.8118 100.037 71.7267C99.8864 71.6421 99.8369 71.4573 99.9258 71.3125L99.9356 71.2965Z" fill="white"/>
<path d="M101.855 67.8767L102.547 66.3137L102.555 66.2961C102.63 66.1272 102.834 66.0463 103.011 66.1154C103.188 66.1844 103.271 66.3773 103.196 66.5463L103.195 66.5478L102.479 68.1425C102.404 68.3089 102.202 68.3878 102.028 68.3189C101.854 68.2498 101.773 68.0591 101.848 67.8926L101.855 67.8767Z" fill="white"/>
<path d="M103.297 64.2577L103.773 62.6251L103.778 62.6069C103.83 62.4269 104.026 62.3195 104.216 62.3673C104.405 62.415 104.516 62.5998 104.463 62.7799L104.463 62.7811L103.97 64.4483C103.917 64.6266 103.723 64.7323 103.535 64.6843C103.348 64.6363 103.239 64.4529 103.292 64.2746L103.297 64.2577Z" fill="white"/>
<path d="M104.239 60.4967L104.496 58.8225L104.498 58.8038C104.527 58.6153 104.712 58.4829 104.91 58.5081C105.108 58.5334 105.246 58.7068 105.217 58.8953L105.216 58.8965L104.948 60.607C104.918 60.7939 104.735 60.9244 104.539 60.8987C104.342 60.873 104.207 60.7008 104.236 60.514L104.239 60.4967Z" fill="white"/>
<path d="M104.677 56.6575L104.711 54.969L104.712 54.9494C104.716 54.7553 104.885 54.5991 105.089 54.6007C105.294 54.6021 105.456 54.7607 105.452 54.9549L105.452 54.9561L105.411 56.6835C105.406 56.8759 105.238 57.0301 105.035 57.0279C104.833 57.0258 104.672 56.868 104.677 56.6756L104.677 56.6575Z" fill="white"/>
<path d="M104.605 52.7997L104.407 51.1256L104.405 51.1042C104.381 50.9077 104.531 50.7286 104.738 50.7044C104.945 50.6801 105.132 50.8196 105.155 51.0162L105.155 51.0175L105.352 52.7347C105.374 52.9295 105.225 53.1065 105.02 53.1299C104.814 53.1533 104.629 53.0143 104.607 52.8194L104.605 52.7997Z" fill="white"/>
<path d="M103.989 48.9987L103.764 48.1874L103.652 47.7818C103.613 47.647 103.581 47.5103 103.536 47.3774C103.471 47.1858 103.583 46.9786 103.785 46.9148C103.988 46.8511 104.205 46.9547 104.27 47.1464L104.27 47.1477L104.274 47.1582C104.32 47.2957 104.353 47.4364 104.392 47.5755L104.507 47.9939L104.735 48.8306C104.787 49.0239 104.665 49.2229 104.46 49.2751C104.256 49.3274 104.048 49.2131 103.995 49.0198L103.989 48.9987Z" fill="white"/>
<path d="M102.769 45.3508C102.547 44.8338 102.307 44.3237 102.048 43.8223C101.954 43.6408 102.034 43.4196 102.226 43.3284C102.419 43.2373 102.65 43.3098 102.744 43.4915C103.012 44.0072 103.262 44.5318 103.491 45.0649C103.572 45.2532 103.476 45.4699 103.277 45.5488C103.077 45.6278 102.85 45.5392 102.769 45.3509L102.769 45.3508Z" fill="white"/>
<path d="M100.957 41.931L99.9974 40.5235L99.9844 40.5045C99.8703 40.3371 99.9218 40.112 100.099 40.0019C100.277 39.8916 100.513 39.9371 100.627 40.1045L101.617 41.5481C101.732 41.7162 101.681 41.9427 101.502 42.054C101.324 42.1653 101.086 42.1193 100.971 41.9512L100.97 41.9505L100.957 41.931Z" fill="white"/>
<path d="M98.63 38.8007L97.4734 37.531L97.4595 37.5157C97.3243 37.3672 97.3427 37.1415 97.5007 37.0114C97.6586 36.8813 97.8955 36.8953 98.0307 37.0438L99.2199 38.3405C99.3567 38.4897 99.3389 38.7174 99.1801 38.849C99.0214 38.9806 98.7818 38.9664 98.645 38.8172L98.6442 38.8163L98.63 38.8007Z" fill="white"/>
<path d="M95.8792 35.9863L94.5645 34.8597L94.5508 34.848C94.4037 34.7219 94.3935 34.5053 94.528 34.3641C94.6619 34.2237 94.8887 34.211 95.0359 34.3351L96.3877 35.4759C96.5387 35.6033 96.5508 35.8239 96.4149 35.9687C96.2789 36.1135 96.0463 36.1276 95.8954 36.0002L95.8934 35.9985L95.8792 35.9863Z" fill="white"/>
<path d="M92.7859 33.5034L91.3424 32.5244L91.3293 32.5154C91.1752 32.4109 91.1408 32.2064 91.2528 32.0588C91.3643 31.912 91.5786 31.8768 91.7326 31.9794L93.211 32.9653C93.3693 33.0708 93.4061 33.2793 93.293 33.4308C93.1799 33.5823 92.96 33.6196 92.8017 33.514L92.7995 33.5125L92.7859 33.5034Z" fill="white"/>
<path d="M89.4191 31.3496L87.8764 30.5126L87.8646 30.5062C87.7144 30.4247 87.6637 30.2423 87.7513 30.0988C87.8381 29.9567 88.0282 29.906 88.1778 29.9843L89.7579 30.8123C89.9157 30.895 89.9716 31.0843 89.8826 31.2351C89.7936 31.386 89.5935 31.4412 89.4356 31.3585C89.4347 31.3581 89.4338 31.3575 89.4329 31.3571L89.4191 31.3496Z" fill="white"/>
<path d="M85.8373 29.527L84.2135 28.8344L84.203 28.8298C84.0603 28.769 83.9979 28.6092 84.0637 28.473C84.1288 28.3381 84.2955 28.277 84.4374 28.3351L86.0936 29.0137C86.2441 29.0753 86.312 29.2417 86.2453 29.3851C86.1786 29.5286 86.0027 29.595 85.8522 29.5333C85.8514 29.533 85.8506 29.5327 85.8497 29.5323L85.8373 29.527Z" fill="white"/>
<path d="M82.0825 28.0359L80.3961 27.4848L80.3869 27.4818C80.2547 27.4386 80.1856 27.3013 80.2326 27.1752C80.2793 27.0503 80.4227 26.9832 80.5539 27.024L82.2677 27.5573C82.4077 27.6008 82.4827 27.7442 82.4352 27.8776C82.3877 28.0109 82.2357 28.0838 82.0958 28.0402C82.095 28.04 82.0942 28.0397 82.0934 28.0394L82.0825 28.0359Z" fill="white"/>
<path d="M78.1968 26.8501L76.4656 26.4297L76.4584 26.4279C76.3473 26.4009 76.2814 26.2934 76.3111 26.1878C76.3404 26.0837 76.4516 26.0202 76.561 26.0441L78.3182 26.428C78.4416 26.455 78.5174 26.572 78.4876 26.6895C78.4578 26.8069 78.3336 26.8803 78.2102 26.8533C78.2088 26.8531 78.2074 26.8527 78.206 26.8524L78.1968 26.8501Z" fill="white"/>
<path d="M74.2164 25.9756L72.4516 25.6902L72.4462 25.6894C72.36 25.6755 72.3029 25.5978 72.3186 25.5158C72.334 25.4351 72.4145 25.3805 72.4991 25.392L74.2829 25.6385C74.3812 25.652 74.4484 25.7389 74.433 25.8325C74.4176 25.926 74.3253 25.9908 74.2269 25.9772C74.2258 25.977 74.2247 25.9769 74.2235 25.9767L74.2164 25.9756Z" fill="white"/>
<path d="M70.1597 25.3958L69.2579 25.3077L69.256 25.3075C69.1965 25.3017 69.1537 25.2511 69.1605 25.1945C69.1672 25.139 69.2192 25.0983 69.2773 25.1021L70.1859 25.1628C70.2538 25.1673 70.3044 25.2233 70.2988 25.2878C70.2932 25.3523 70.2337 25.4009 70.1657 25.3963C70.1647 25.3963 70.1635 25.3962 70.1623 25.396L70.1597 25.3958Z" fill="white"/>
<path d="M94.8657 86.7485C76.9988 104.801 49.5542 99.4605 45.4975 98.6023C40.3868 97.5211 28.2276 94.9487 19.1539 84.7923C5.26205 69.2428 6.6649 44.9412 17.3934 28.5573C20.5151 23.79 31.0207 9.62267 50.7493 6.54233C51.9024 6.36231 72.5035 3.47028 89.0792 16.7864C91.3142 18.5819 94.9214 21.8333 98.0832 26.5678C107.891 41.2545 112.532 68.8982 94.8657 86.7485Z" fill="url(#paint0_linear_12145_81221)"/>
<path d="M56.1507 11.0073C56.3529 10.0611 57.382 9.50491 58.3321 9.82926C64.6336 11.9805 86.3669 19.0868 105.108 21.4528C105.963 21.5607 106.559 22.3182 106.426 23.1337L95.5228 90.1093C95.3733 91.0276 94.4781 91.6581 93.5181 91.5204C85.6646 90.3947 53.3458 85.6476 42.2032 82.2057C41.525 81.9962 41.1217 81.3309 41.2645 80.6625L56.1507 11.0073Z" fill="url(#paint1_linear_12145_81221)"/>
<path opacity="0.6" d="M56.5486 12.8247C56.7432 11.9141 57.7335 11.3788 58.6478 11.691C64.712 13.7613 85.6269 20.5999 103.663 22.8769C104.485 22.9808 105.058 23.7097 104.93 24.4945L94.4381 88.948C94.2942 89.8318 93.4327 90.4385 92.5088 90.3061C84.9511 89.2228 53.8493 84.6543 43.1262 81.342C42.4736 81.1405 42.0854 80.5003 42.2229 79.857L56.5486 12.8247Z" fill="white"/>
<path opacity="0.78" d="M62.4559 18.1393C61.8967 18.0067 61.3384 18.3596 61.2458 18.904L58.9009 32.7029C58.8229 33.1618 59.1268 33.6006 59.599 33.7093C62.2265 34.3141 70.4206 36.1684 75.1224 36.8748C75.6542 36.9547 76.1601 36.6312 76.2885 36.1306C76.9413 33.5858 78.7772 26.1659 78.8537 22.9248C78.866 22.4012 78.4951 21.9409 77.9642 21.815L62.4559 18.1393Z" fill="white"/>
<path d="M69.1599 28.6058C70.8916 28.6058 72.2955 27.2617 72.2955 25.6037C72.2955 23.9457 70.8916 22.6016 69.1599 22.6016C67.4282 22.6016 66.0244 23.9457 66.0244 25.6037C66.0244 27.2617 67.4282 28.6058 69.1599 28.6058Z" fill="url(#paint2_linear_12145_81221)"/>
<path d="M62.602 33.2858L72.3766 35.2582C72.9759 35.3792 73.4744 34.818 73.2581 34.2694C72.7017 32.8581 71.3668 30.6801 68.3402 30.1555C65.4232 29.6499 63.3413 30.9537 62.2168 31.9632C61.7394 32.3917 61.9617 33.1566 62.602 33.2858Z" fill="url(#paint3_linear_12145_81221)"/>
<g opacity="0.6">
<path d="M100.072 27.9801C100.378 28.0419 100.668 27.8849 100.716 27.6312C100.764 27.3775 100.553 27.1151 100.248 27.0481L83.1804 23.2987C82.8755 23.2317 82.6594 23.4199 82.7003 23.7168L82.7332 23.9562C82.774 24.2532 83.0579 24.5467 83.364 24.6085L100.072 27.9801Z" fill="white"/>
</g>
<g opacity="0.6">
<path d="M82.6184 25.8456C82.3135 25.7786 82.0974 25.9667 82.1383 26.2637L82.1712 26.5032C82.212 26.8001 82.4959 27.0937 82.802 27.1554L99.5103 30.527C99.8165 30.5888 100.106 30.4318 100.154 30.1781C100.202 29.9244 99.9913 29.662 99.6864 29.595L82.6184 25.8456Z" fill="white"/>
</g>
<g opacity="0.6">
<path d="M82.0505 28.4296C81.7456 28.3626 81.5295 28.5507 81.5704 28.8477L81.6033 29.0871C81.6441 29.3841 81.928 29.6776 82.2341 29.7394L98.9424 33.111C99.2486 33.1728 99.5381 33.0157 99.5859 32.7621C99.6338 32.5084 99.4234 32.246 99.1185 32.179L82.0505 28.4296Z" fill="white"/>
</g>
<g opacity="0.6">
<path d="M97.8634 45.9121C98.1696 45.9738 98.4512 45.8152 98.4893 45.5596C98.5275 45.304 98.3086 45.0424 98.003 44.9783L57.9332 36.5762C57.6276 36.5121 57.4923 36.6788 57.6325 36.9466L57.8737 37.4071C58.0139 37.6749 58.3791 37.9445 58.6852 38.0063L97.8634 45.9121Z" fill="white"/>
</g>
<g opacity="0.6">
<path d="M57.3717 39.1211C57.0661 39.0571 56.9308 39.2237 57.071 39.4915L57.3122 39.952C57.4524 40.2198 57.8176 40.4894 58.1237 40.5512L97.302 48.457C97.6081 48.5188 97.8897 48.3601 97.9278 48.1045C97.966 47.8489 97.7471 47.5873 97.4415 47.5232L57.3717 39.1211Z" fill="white"/>
</g>
<path opacity="0.6" d="M56.255 43.3394C57.2356 43.4634 59.05 43.7952 60.0478 43.9826C60.4705 44.0621 60.78 44.41 60.7925 44.8224C60.8167 45.6232 60.7903 46.9999 60.4484 48.3952C60.346 48.813 59.913 49.0757 59.4753 48.9827L55.8126 48.2041C55.3622 48.1084 55.0602 47.7023 55.1129 47.2634L55.518 43.8917C55.5599 43.5429 55.8915 43.2935 56.255 43.3394Z" fill="white"/>
<g opacity="0.6">
<path d="M62.744 46.0652C62.4408 45.9912 62.1778 46.1754 62.1594 46.4744L62.1236 47.0591C62.1052 47.3581 62.3407 47.6533 62.6468 47.7151L71.5625 49.5142C71.8686 49.576 72.1687 49.3861 72.2294 49.0922L72.2593 48.9477C72.32 48.6538 72.1216 48.3529 71.8184 48.2789L62.744 46.0652Z" fill="white"/>
</g>
<path opacity="0.6" d="M76.2535 47.3766C77.2341 47.5005 79.0485 47.8323 80.0463 48.0198C80.469 48.0992 80.7785 48.4472 80.791 48.8595C80.8153 49.6603 80.7888 51.037 80.4469 52.4323C80.3445 52.8501 79.9115 53.1128 79.4739 53.0198L75.8112 52.2412C75.3608 52.1454 75.0587 51.7393 75.1114 51.3005L75.5165 47.9288C75.5584 47.58 75.89 47.3306 76.2535 47.3766Z" fill="white"/>
<g opacity="0.6">
<path d="M82.7425 50.1023C82.4393 50.0283 82.1763 50.2125 82.158 50.5115L82.1221 51.0962C82.1038 51.3952 82.3392 51.6904 82.6453 51.7522L91.561 53.5513C91.8671 53.6131 92.1672 53.4232 92.228 53.1293L92.2578 52.9848C92.3185 52.6909 92.1201 52.39 91.817 52.316L82.7425 50.1023Z" fill="white"/>
</g>
<path d="M58.547 57.5036C58.5439 57.503 58.5408 57.5024 58.5377 57.5018L55.1571 56.7871C54.6741 56.685 54.3449 56.2855 54.391 55.858L54.6923 53.0767C54.71 52.9134 54.7966 52.766 54.936 52.6614C55.0922 52.5444 55.3007 52.4933 55.5082 52.5211C55.7977 52.5601 56.2069 52.6083 56.64 52.6595C57.552 52.7672 58.6871 52.9014 59.3161 53.0205C59.7717 53.1101 60.1011 53.446 60.1248 53.8471C60.1638 54.5074 59.888 55.6868 59.5771 56.9397C59.4762 57.3467 59.0153 57.5982 58.547 57.5036ZM55.4713 52.7732C55.3349 52.7549 55.1995 52.7872 55.0999 52.8619C55.0177 52.9234 54.9669 53.009 54.9567 53.1029L54.6555 55.8842C54.6231 56.183 54.8634 56.4643 55.2145 56.5386L58.595 57.2533C58.5973 57.2537 58.5996 57.2542 58.6019 57.2546C58.9301 57.3209 59.2507 57.1543 59.3185 56.8809C59.6247 55.647 59.8963 54.4876 59.8594 53.8614C59.8429 53.5808 59.595 53.3379 59.2646 53.2701C58.6449 53.1528 57.5152 53.0194 56.6075 52.9122C56.1732 52.8609 55.763 52.8124 55.4713 52.7732Z" fill="white"/>
<path opacity="0.6" d="M55.7743 53.13C56.4961 53.2271 58.0759 53.3888 58.8114 53.5281C59.123 53.5871 59.3561 53.822 59.3722 54.0947C59.4034 54.6245 59.1648 55.6197 58.9372 56.5369C58.8691 56.8115 58.5556 56.9785 58.2329 56.9102L55.5313 56.3391C55.1991 56.2689 54.9706 55.9958 55.0019 55.7065L55.2426 53.4838C55.2675 53.2539 55.5067 53.0941 55.7743 53.13Z" fill="white"/>
<g opacity="0.6">
<path d="M61.9206 56.2963C61.9402 56.6721 62.2237 56.9873 62.609 57.0618L94.0075 63.1305C94.3627 63.1992 94.708 62.9765 94.775 62.6355C94.84 62.304 94.6175 61.9832 94.2731 61.9121L62.9601 55.4505C62.4074 55.3364 61.8922 55.7556 61.9206 56.2963Z" fill="white"/>
</g>
<path d="M55.8236 53.5851C56.1062 53.4946 56.4113 53.6442 56.4997 53.9167L56.9154 55.1983C56.957 55.3266 57.1336 55.3546 57.2162 55.2461L59.651 52.048C59.7725 51.8885 60.0334 52.0033 59.9879 52.1959C59.7331 53.273 58.9816 55.2665 56.8 56.6218C56.8 56.6218 55.8877 56.0515 55.4578 54.2075C55.3957 53.9411 55.5534 53.6717 55.8236 53.5851Z" fill="url(#paint4_linear_12145_81221)"/>
<path d="M57.0157 64.4568C57.0127 64.4562 57.0096 64.4555 57.0065 64.4549L53.6259 63.7402C53.1429 63.638 52.8136 63.2386 52.8598 62.8111L53.161 60.0298C53.1787 59.8665 53.2653 59.7191 53.4048 59.6145C53.5609 59.4976 53.7695 59.4464 53.977 59.4742C54.2665 59.5132 54.6756 59.5614 55.1087 59.6127C56.0207 59.7204 57.1558 59.8545 57.7848 59.9736C57.7894 59.9745 57.794 59.9753 57.7985 59.9762C58.244 60.0661 58.5701 60.4032 58.5936 60.8003C58.6325 61.4605 58.3567 62.6399 58.0459 63.8928C57.9449 64.2998 57.4841 64.5513 57.0157 64.4568ZM53.9401 59.7263C53.8037 59.708 53.6682 59.7403 53.5686 59.815C53.4865 59.8765 53.4356 59.9621 53.4254 60.0559L53.1242 62.8373C53.0919 63.1361 53.3322 63.4174 53.6832 63.4917L57.0638 64.2063C57.066 64.2068 57.0683 64.2073 57.0706 64.2077C57.3989 64.2739 57.7194 64.1074 57.7873 63.834C58.0934 62.6001 58.3651 61.4407 58.3282 60.8145C58.3115 60.534 58.0609 60.2842 57.7332 60.2232C57.1137 60.1059 55.9839 59.9725 55.0762 59.8653C54.6419 59.814 54.2317 59.7655 53.9401 59.7263Z" fill="white"/>
<path opacity="0.6" d="M54.243 60.0812C54.9649 60.1783 56.5447 60.34 57.2802 60.4793C57.5918 60.5383 57.8248 60.7731 57.8409 61.0459C57.8722 61.5757 57.6335 62.5709 57.406 63.488C57.3378 63.7627 57.0244 63.9297 56.7016 63.8614L54.0001 63.2903C53.6678 63.22 53.4393 62.9469 53.4706 62.6576L53.7113 60.435C53.7362 60.2051 53.9754 60.0452 54.243 60.0812Z" fill="white"/>
<g opacity="0.6">
<path d="M60.3913 63.2475C60.4109 63.6233 60.6944 63.9385 61.0796 64.013L92.4782 70.0817C92.8334 70.1504 93.1787 69.9276 93.2457 69.5867C93.3107 69.2552 93.0882 68.9343 92.7438 68.8633L61.4309 62.4017C60.8781 62.2876 60.3629 62.7068 60.3913 63.2475Z" fill="white"/>
</g>
<path d="M54.2924 60.5344C54.575 60.4439 54.8801 60.5935 54.9685 60.866L55.3842 62.1475C55.4258 62.2758 55.6024 62.3039 55.685 62.1953L58.1198 58.9972C58.2412 58.8377 58.5022 58.9526 58.4567 59.1451C58.2019 60.2222 57.4504 62.2157 55.2688 63.5711C55.2688 63.5711 54.3565 63.0007 53.9266 61.1567C53.8645 60.8904 54.0221 60.621 54.2924 60.5344Z" fill="url(#paint5_linear_12145_81221)"/>
<path d="M55.4879 71.4099C55.4849 71.4092 55.4817 71.4086 55.4787 71.408L52.0981 70.6933C51.615 70.5913 51.2857 70.1919 51.332 69.7644L51.6332 66.983C51.6509 66.8197 51.7375 66.6722 51.8771 66.5677C52.0332 66.4507 52.2417 66.3995 52.4492 66.4273C52.7387 66.4663 53.1479 66.5146 53.581 66.5658C54.493 66.6735 55.6281 66.8077 56.2571 66.9267C56.2616 66.9276 56.2663 66.9284 56.2708 66.9293C56.7163 67.0192 57.0423 67.3563 57.0658 67.7534C57.1048 68.4137 56.829 69.593 56.5181 70.846C56.4171 71.2529 55.9563 71.5044 55.4879 71.4099ZM52.4123 66.6794C52.2758 66.661 52.1404 66.6934 52.0408 66.7681C51.9586 66.8296 51.9078 66.9152 51.8976 67.0092L51.5964 69.7905C51.564 70.0893 51.8044 70.3706 52.1554 70.4447L55.536 71.1594C55.5382 71.1599 55.5405 71.1604 55.5428 71.1608C55.8711 71.227 56.1916 71.0604 56.2595 70.7871C56.5656 69.5531 56.8373 68.3938 56.8004 67.7676C56.7838 67.4871 56.5334 67.2363 56.2055 67.1763C55.5859 67.0591 54.4562 66.9256 53.5484 66.8184C53.1141 66.7671 52.7039 66.7186 52.4123 66.6794Z" fill="white"/>
<path opacity="0.6" d="M52.7123 67.0324C53.4342 67.1294 55.0139 67.2912 55.7494 67.4304C56.0611 67.4895 56.2941 67.7243 56.3102 67.997C56.3415 68.5268 56.1028 69.5221 55.8752 70.4392C55.8071 70.7138 55.4937 70.8808 55.1709 70.8126L52.4693 70.2414C52.1371 70.1712 51.9086 69.8981 51.9399 69.6088L52.1806 67.3861C52.2055 67.1562 52.4447 66.9964 52.7123 67.0324Z" fill="white"/>
<g opacity="0.6">
<path d="M58.8585 70.2006C58.8782 70.5764 59.1617 70.8916 59.547 70.9661L90.9456 77.0348C91.3008 77.1034 91.646 76.8808 91.713 76.5398C91.7781 76.2083 91.5555 75.8875 91.2111 75.8164L59.8982 69.3548C59.3454 69.2407 58.8302 69.6599 58.8585 70.2006Z" fill="white"/>
</g>
<path d="M52.7631 67.4855C53.0457 67.395 53.3508 67.5446 53.4392 67.8171L53.8549 69.0987C53.8965 69.227 54.0731 69.255 54.1557 69.1465L56.5905 65.9484C56.7119 65.7889 56.9729 65.9038 56.9274 66.0963C56.6726 67.1734 55.9211 69.1669 53.7395 70.5222C53.7395 70.5222 52.8272 69.9519 52.3973 68.1079C52.3352 67.8415 52.4928 67.5721 52.7631 67.4855Z" fill="url(#paint6_linear_12145_81221)"/>
<path d="M53.9567 78.3572C53.9536 78.3566 53.9505 78.356 53.9474 78.3553L50.5668 77.6406C50.0838 77.5386 49.7545 77.1392 49.8007 76.7117L50.102 73.9303C50.1196 73.767 50.2063 73.6195 50.3458 73.5149C50.5019 73.398 50.7105 73.3468 50.918 73.3746C51.2075 73.4136 51.6166 73.4618 52.0497 73.5131C52.9617 73.6207 54.0968 73.7549 54.7258 73.874C54.7304 73.8749 54.735 73.8757 54.7395 73.8766C55.185 73.9665 55.511 74.3036 55.5345 74.7007C55.5735 75.361 55.2977 76.5403 54.9868 77.7932C54.8859 78.2002 54.425 78.4517 53.9567 78.3572ZM50.881 73.6268C50.7446 73.6083 50.6092 73.6407 50.5096 73.7154C50.4274 73.7769 50.3766 73.8625 50.3664 73.9565L50.0651 76.7379C50.0328 77.0367 50.2731 77.318 50.6241 77.3921L54.0048 78.1068C54.007 78.1072 54.0093 78.1077 54.0116 78.1081C54.3398 78.1744 54.6604 78.0078 54.7282 77.7344C55.0343 76.5005 55.3061 75.3411 55.2691 74.7149C55.2525 74.4344 55.0023 74.1828 54.6742 74.1237C54.0546 74.0064 52.9249 73.8729 52.0172 73.7657C51.5829 73.7144 51.1726 73.6659 50.881 73.6268Z" fill="white"/>
<path opacity="0.6" d="M51.1844 73.9816C51.9063 74.0786 53.4861 74.2404 54.2216 74.3797C54.5332 74.4387 54.7662 74.6735 54.7823 74.9463C54.8136 75.476 54.5749 76.4713 54.3474 77.3884C54.2792 77.6631 53.9658 77.83 53.643 77.7618L50.9415 77.1906C50.6093 77.1204 50.3807 76.8473 50.412 76.558L50.6527 74.3354C50.6776 74.1054 50.9168 73.9457 51.1844 73.9816Z" fill="white"/>
<g opacity="0.6">
<path d="M57.3292 77.1518C57.3489 77.5276 57.6324 77.8428 58.0177 77.9173L89.4163 83.986C89.7715 84.0546 90.1167 83.8319 90.1837 83.4909C90.2488 83.1594 90.0262 82.8386 89.6818 82.7676L58.3689 76.3059C57.8161 76.1919 57.3009 76.6111 57.3292 77.1518Z" fill="white"/>
</g>
<path d="M51.2353 74.4387C51.5178 74.3482 51.8229 74.4978 51.9113 74.7702L52.327 76.0518C52.3686 76.1801 52.5452 76.2082 52.6279 76.0996L55.0626 72.9015C55.1841 72.742 55.4451 72.8569 55.3995 73.0494C55.1447 74.1265 54.3932 76.12 52.2116 77.4753C52.2116 77.4753 51.2993 76.905 50.8694 75.061C50.8074 74.7947 50.965 74.5253 51.2353 74.4387Z" fill="url(#paint7_linear_12145_81221)"/>
<path d="M8.91316 20.0387C8.70655 19.0934 9.42052 18.1918 10.4271 18.1285C17.1028 17.7087 39.9968 15.9731 58.1798 11.0235C59.009 10.7978 59.8697 11.2667 60.0859 12.0657L77.8398 77.6838C78.0832 78.5835 77.5228 79.5024 76.5846 79.7409C68.9094 81.6918 37.2771 89.6151 25.6228 90.6898C24.9135 90.7552 24.2675 90.2979 24.1216 89.6301L8.91316 20.0387Z" fill="url(#paint8_linear_12145_81221)"/>
<path opacity="0.6" d="M10.0314 21.5565C9.83263 20.6468 10.5197 19.7792 11.4883 19.7182C17.9126 19.3142 39.9446 17.6439 57.4429 12.8807C58.2409 12.6635 59.0692 13.1148 59.2772 13.8837L76.3626 77.031C76.5968 77.8968 76.0575 78.7811 75.1546 79.0106C67.7685 80.888 37.3273 88.5129 26.1119 89.5472C25.4293 89.6101 24.8076 89.17 24.6672 88.5274L10.0314 21.5565Z" fill="white"/>
<path opacity="0.78" d="M16.8632 25.3484L20.4305 38.9052C20.5491 39.3561 21.0099 39.6433 21.4884 39.5637C24.1508 39.1203 32.4407 37.7088 37.049 36.5706C37.5703 36.4418 37.9006 35.9527 37.8109 35.4444C37.3553 32.8605 35.9649 25.3524 34.6916 22.3484C34.4859 21.8631 33.9547 21.5815 33.4152 21.6678L17.6569 24.1867C17.0886 24.2776 16.7224 24.8135 16.8632 25.3484Z" fill="white"/>
<path d="M30.0348 28.6963C30.1526 27.0421 28.8474 25.6097 27.1197 25.497C25.392 25.3842 23.8959 26.6338 23.7782 28.288C23.6604 29.9422 24.9655 31.3746 26.6933 31.4873C28.421 31.6001 29.917 30.3505 30.0348 28.6963Z" fill="#91B3FA"/>
<path d="M24.07 38.0383L33.8594 36.1346C34.4596 36.0178 34.6846 35.3134 34.2587 34.892C33.1629 33.808 31.0349 32.3161 28.0395 32.9846C25.1524 33.6289 23.7819 35.6168 23.1682 36.9707C22.9077 37.5454 23.4287 38.163 24.07 38.0383Z" fill="#91B3FA"/>
<g opacity="0.6">
<path d="M56.2632 18.9309C56.5698 18.8713 56.7705 18.6171 56.7093 18.3661C56.648 18.1151 56.3462 17.9542 56.0385 18.0086L38.8181 21.0526C38.5104 21.107 38.3901 21.3618 38.5507 21.6188L38.6802 21.8261C38.8407 22.0831 39.223 22.2447 39.5295 22.1851L56.2632 18.9309Z" fill="white"/>
</g>
<g opacity="0.6">
<path d="M39.3586 23.6014C39.051 23.6558 38.9307 23.9107 39.0912 24.1677L39.2207 24.3749C39.3813 24.632 39.7635 24.7936 40.0701 24.7339L56.8038 21.4798C57.1104 21.4201 57.3111 21.166 57.2498 20.915C57.1886 20.664 56.8867 20.5031 56.5791 20.5574L39.3586 23.6014Z" fill="white"/>
</g>
<g opacity="0.6">
<path d="M39.9084 26.1932C39.6008 26.2476 39.4805 26.5024 39.641 26.7595L39.7705 26.9667C39.9311 27.2238 40.3133 27.3853 40.6199 27.3257L57.3536 24.0715C57.6602 24.0119 57.8609 23.7578 57.7996 23.5067C57.7383 23.2557 57.4365 23.0948 57.1288 23.1492L39.9084 26.1932Z" fill="white"/>
</g>
<g opacity="0.6">
<path d="M61.6684 36.2286C61.975 36.1689 62.1678 35.9163 62.0967 35.6672C62.0257 35.4181 61.7164 35.2612 61.4094 35.3184L21.1477 42.8322C20.8406 42.8895 20.7854 43.0939 21.0251 43.2864L21.4374 43.6174C21.6771 43.8099 22.124 43.9187 22.4306 43.859L61.6684 36.2286Z" fill="white"/>
</g>
<g opacity="0.6">
<path d="M21.6882 45.383C21.3811 45.4403 21.326 45.6447 21.5657 45.8371L21.9779 46.1682C22.2176 46.3607 22.6646 46.4694 22.9711 46.4098L62.2089 38.7794C62.5155 38.7197 62.7083 38.4671 62.6373 38.218C62.5663 37.9689 62.257 37.8119 61.95 37.8692L21.6882 45.383Z" fill="white"/>
</g>
<path opacity="0.6" d="M22.412 49.6778C23.3634 49.4189 25.1664 49.0341 26.1598 48.827C26.5808 48.7393 27.0092 48.9411 27.1915 49.3148C27.5457 50.0406 28.0921 51.3143 28.3566 52.725C28.4358 53.1474 28.1472 53.553 27.707 53.6339L24.0223 54.311C23.5692 54.3943 23.1236 54.1363 22.9901 53.7135L21.9644 50.4648C21.8583 50.1287 22.0593 49.7738 22.412 49.6778Z" fill="white"/>
<g opacity="0.6">
<path d="M29.4972 49.7161C29.1883 49.7634 29.0232 50.0323 29.1303 50.3138L29.3398 50.8641C29.4469 51.1455 29.7854 51.327 30.092 51.2674L39.0212 49.5309C39.3278 49.4713 39.5245 49.183 39.4584 48.8902L39.4259 48.7462C39.3598 48.4534 39.053 48.2526 38.7441 48.2999L29.4972 49.7161Z" fill="white"/>
</g>
<path opacity="0.6" d="M42.4398 45.7813C43.3913 45.5224 45.1942 45.1376 46.1877 44.9305C46.6087 44.8428 47.037 45.0446 47.2194 45.4183C47.5736 46.1441 48.1199 47.4178 48.3844 48.8285C48.4636 49.2509 48.1751 49.6566 47.7348 49.7375L44.0501 50.4145C43.597 50.4978 43.1514 50.2398 43.0179 49.817L41.9922 46.5683C41.8861 46.2322 42.0871 45.8772 42.4398 45.7813Z" fill="white"/>
<g opacity="0.6">
<path d="M49.5265 45.8196C49.2176 45.8669 49.0525 46.1359 49.1596 46.4173L49.3691 46.9676C49.4762 47.249 49.8147 47.4305 50.1213 47.3709L59.0505 45.6345C59.3571 45.5748 59.5539 45.2865 59.4877 44.9937L59.4552 44.8497C59.3891 44.5569 59.0823 44.3561 58.7734 44.4034L49.5265 45.8196Z" fill="white"/>
</g>
<path d="M30.3857 61.8093C30.3826 61.8099 30.3795 61.8105 30.3764 61.8111L26.9772 62.4397C26.4915 62.5294 26.0236 62.2879 25.8889 61.878L25.0125 59.2106C24.961 59.0539 24.9794 58.8858 25.0641 58.7367C25.159 58.5701 25.3292 58.4439 25.5312 58.3905C25.813 58.3163 26.2086 58.2051 26.6274 58.0876C27.5091 57.8399 28.6066 57.5317 29.2333 57.402C29.6887 57.3111 30.1302 57.4942 30.3183 57.8535C30.6277 58.4447 30.8634 59.632 31.0974 60.9002C31.1735 61.3122 30.8547 61.7181 30.3857 61.8093ZM25.6018 58.6361C25.469 58.671 25.3581 58.7522 25.2976 58.8586C25.2477 58.9462 25.2365 59.0442 25.2661 59.1342L26.1425 61.8016C26.2367 62.0882 26.5738 62.255 26.9268 62.1898L30.326 61.5612C30.3283 61.5608 30.3305 61.5603 30.3328 61.5599C30.6616 61.496 30.8868 61.2212 30.8358 60.9446C30.6053 59.6956 30.3741 58.5283 30.0807 57.9675C29.9491 57.7162 29.621 57.5874 29.2896 57.6509C28.6722 57.7787 27.58 58.0854 26.7023 58.3319C26.2824 58.4498 25.8857 58.5612 25.6018 58.6361Z" fill="white"/>
<path opacity="0.6" d="M26.0249 58.8443C26.7277 58.6591 28.2448 58.2073 28.9776 58.0556C29.2881 57.9914 29.5993 58.1183 29.7272 58.3626C29.9754 58.837 30.1689 59.8412 30.3402 60.7694C30.3915 61.0474 30.173 61.3198 29.8484 61.3798L27.132 61.8821C26.7979 61.9439 26.475 61.7801 26.3838 61.5026L25.6835 59.371C25.6111 59.1505 25.7644 58.913 26.0249 58.8443Z" fill="white"/>
<g opacity="0.6">
<path d="M32.9809 59.4183C33.1547 59.7558 33.5455 59.9374 33.93 59.8594L65.2655 53.4988C65.62 53.4269 65.8446 53.0913 65.7647 52.7529C65.6871 52.4239 65.3498 52.2139 65.0043 52.2796L33.5845 58.247C33.0299 58.3523 32.7307 58.9328 32.9809 59.4183Z" fill="white"/>
</g>
<path d="M31.8632 68.7691C31.8601 68.7697 31.857 68.7703 31.8539 68.7709L28.4547 69.3995C27.969 69.4893 27.5012 69.2477 27.3664 68.8378L26.49 66.1704C26.4386 66.0138 26.457 65.8456 26.5416 65.6966C26.6365 65.5299 26.8067 65.4038 27.0087 65.3504C27.2906 65.2762 27.6862 65.165 28.1049 65.0474C28.9867 64.7998 30.0842 64.4916 30.7109 64.3618C30.7154 64.361 30.72 64.3599 30.7245 64.3591C31.1707 64.2723 31.6097 64.4578 31.7958 64.8133C32.1053 65.4046 32.341 66.5919 32.575 67.86C32.651 68.272 32.3322 68.6779 31.8632 68.7691ZM27.0794 65.5958C26.9465 65.6308 26.8357 65.712 26.7752 65.8183C26.7252 65.906 26.7141 66.004 26.7436 66.0939L27.62 68.7614C27.7142 69.0479 28.0514 69.2148 28.4044 69.1495L31.8035 68.521C31.8058 68.5205 31.808 68.5201 31.8103 68.5197C32.1391 68.4557 32.3643 68.181 32.3133 67.9043C32.0828 66.6554 31.8516 65.488 31.5582 64.9272C31.4266 64.6761 31.0931 64.542 30.7671 64.6106C30.1497 64.7384 29.0575 65.0451 28.1798 65.2917C27.7599 65.4096 27.3633 65.521 27.0794 65.5958Z" fill="white"/>
<path opacity="0.6" d="M27.5024 65.8072C28.2053 65.622 29.7223 65.1701 30.4551 65.0185C30.7656 64.9543 31.0769 65.0812 31.2047 65.3255C31.453 65.7999 31.6464 66.8041 31.8177 67.7323C31.869 68.0103 31.6506 68.2827 31.326 68.3427L28.6096 68.845C28.2755 68.9068 27.9526 68.7429 27.8614 68.4655L27.161 66.3339C27.0886 66.1134 27.2419 65.8758 27.5024 65.8072Z" fill="white"/>
<g opacity="0.6">
<path d="M34.4599 66.3793C34.6337 66.7168 35.0246 66.8983 35.409 66.8203L66.7445 60.4598C67.099 60.3878 67.3236 60.0522 67.2437 59.7138C67.1661 59.3848 66.8288 59.1749 66.4833 59.2405L35.0635 65.2079C34.5089 65.3132 34.2097 65.8937 34.4599 66.3793Z" fill="white"/>
</g>
<path d="M33.3397 75.732C33.3367 75.7326 33.3336 75.7332 33.3304 75.7338L29.9312 76.3624C29.4456 76.4523 28.9778 76.2109 28.843 75.8008L27.9666 73.1334C27.9151 72.9768 27.9335 72.8085 28.0183 72.6595C28.1131 72.4928 28.2833 72.3666 28.4853 72.3133C28.7672 72.2391 29.1627 72.1279 29.5815 72.0103C30.4632 71.7626 31.5607 71.4545 32.1874 71.3247C32.192 71.3239 32.1965 71.3228 32.2011 71.322C32.6472 71.2352 33.0862 71.4207 33.2724 71.7762C33.5818 72.3675 33.8175 73.5548 34.0515 74.8229C34.1276 75.2349 33.8088 75.6408 33.3397 75.732ZM28.5559 72.5588C28.4231 72.5937 28.3122 72.6749 28.2517 72.7812C28.2018 72.869 28.1906 72.9669 28.2202 73.057L29.0966 75.7244C29.1908 76.0109 29.5279 76.1778 29.8808 76.1125L33.2801 75.4839C33.2823 75.4835 33.2846 75.483 33.2869 75.4826C33.6157 75.4186 33.8408 75.1439 33.7898 74.8672C33.5594 73.6183 33.3282 72.4509 33.0347 71.8902C32.9032 71.639 32.5694 71.504 32.2436 71.5735C31.6263 71.7013 30.534 72.0081 29.6564 72.2546C29.2364 72.3725 28.8398 72.4839 28.5559 72.5588Z" fill="white"/>
<path opacity="0.6" d="M28.979 72.7721C29.6818 72.5868 31.1989 72.135 31.9317 71.9834C32.2422 71.9191 32.5534 72.0461 32.6813 72.2903C32.9296 72.7647 33.123 73.7689 33.2943 74.6972C33.3456 74.9752 33.1271 75.2475 32.8025 75.3075L30.0861 75.8098C29.7521 75.8716 29.4291 75.7078 29.3379 75.4303L28.6376 73.2987C28.5652 73.0783 28.7185 72.8407 28.979 72.7721Z" fill="white"/>
<g opacity="0.6">
<path d="M35.9335 73.3461C36.1074 73.6836 36.4982 73.8651 36.8827 73.7871L68.2182 67.4266C68.5727 67.3546 68.7973 67.019 68.7174 66.6806C68.6397 66.3516 68.3025 66.1417 67.9569 66.2073L36.5372 72.1747C35.9825 72.28 35.6833 72.8606 35.9335 73.3461Z" fill="white"/>
</g>
<path d="M34.8168 82.693C34.8137 82.6936 34.8106 82.6942 34.8075 82.6948L31.4083 83.3234C30.9226 83.4132 30.4548 83.1718 30.32 82.7618L29.4437 80.0944C29.3922 79.9377 29.4106 79.7695 29.4953 79.6205C29.5902 79.4538 29.7603 79.3276 29.9623 79.2742C30.2442 79.2 30.6398 79.0888 31.0585 78.9713C31.9403 78.7236 33.0377 78.4154 33.6645 78.2857C33.669 78.2848 33.6736 78.2838 33.6781 78.2829C34.1243 78.1961 34.5633 78.3816 34.7494 78.7371C35.0589 79.3284 35.2946 80.5157 35.5286 81.7839C35.6046 82.1958 35.2858 82.6018 34.8168 82.693ZM30.0329 79.5197C29.9001 79.5547 29.7892 79.6358 29.7288 79.7422C29.6788 79.8299 29.6676 79.9278 29.6973 80.0179L30.5736 82.6853C30.6678 82.9719 31.005 83.1388 31.3579 83.0734L34.7572 82.4449C34.7594 82.4444 34.7617 82.444 34.764 82.4436C35.0927 82.3796 35.3179 82.1049 35.2669 81.8282C35.0364 80.5793 34.8053 79.4119 34.5118 78.8511C34.3802 78.6 34.0463 78.4641 33.7207 78.5345C33.1033 78.6623 32.0111 78.9691 31.1335 79.2156C30.7135 79.3335 30.3169 79.4448 30.0329 79.5197Z" fill="white"/>
<path opacity="0.6" d="M30.4565 79.731C31.1593 79.5458 32.6764 79.094 33.4092 78.9423C33.7197 78.8781 34.031 79.0051 34.1588 79.2493C34.4071 79.7237 34.6005 80.7279 34.7718 81.6562C34.8231 81.9342 34.6047 82.2065 34.2801 82.2665L31.5637 82.7688C31.2296 82.8306 30.9067 82.6668 30.8155 82.3893L30.1151 80.2577C30.0427 80.0373 30.196 79.7997 30.4565 79.731Z" fill="white"/>
<g opacity="0.6">
<path d="M37.4125 80.3051C37.5864 80.6426 37.9772 80.8242 38.3617 80.7461L69.6972 74.3856C70.0517 74.3136 70.2763 73.978 70.1964 73.6396C70.1187 73.3106 69.7815 73.1007 69.4359 73.1663L38.0162 79.1337C37.4615 79.239 37.1624 79.8195 37.4125 80.3051Z" fill="white"/>
</g>
<path d="M30.6926 80.1314C30.9145 79.941 31.2565 79.9624 31.4505 80.1788L32.3634 81.1972C32.4547 81.2992 32.6284 81.2578 32.6593 81.1268L33.5685 77.2662C33.6139 77.0736 33.901 77.0799 33.939 77.2739C34.1516 78.3594 34.2881 80.4747 32.8474 82.5477C32.8474 82.5477 31.7737 82.3708 30.6147 80.8416C30.4474 80.6208 30.4804 80.3136 30.6926 80.1314Z" fill="url(#paint9_linear_12145_81221)"/>
<path d="M29.2368 76.8139C29.548 79.9401 30.2785 84.0732 31.1565 87.6348H31.7078C30.5726 83.3369 29.5277 77.4508 29.8354 70.6657C30.1457 63.8234 31.8959 55.5158 28.6322 51.5472C25.916 48.2443 14.39 47.7506 10.5998 47.6779C10.1262 47.6688 9.85512 48.1911 10.1499 48.5462C11.6029 50.2967 14.6457 54.3508 14.9107 57.8909C15.2601 62.557 19.0477 66.2194 22.8113 67.744C26.5748 69.2686 28.6016 70.4314 29.2368 76.8139Z" fill="url(#paint10_linear_12145_81221)"/>
<path opacity="0.5" d="M15.339 50.561C17.6703 51.1276 19.8754 52.1459 21.8047 53.5406C22.7711 54.2352 23.647 55.0514 24.4023 55.9626C25.1496 56.8789 25.777 57.894 26.2126 58.9842L26.3739 59.3936C26.4267 59.5303 26.4661 59.6714 26.5127 59.8102C26.5557 59.9494 26.6044 60.0899 26.6426 60.2281L26.7577 60.6428C26.9126 61.1954 27.0646 61.7487 27.2108 62.3035C27.5048 63.4127 27.7803 64.5264 28.0377 65.6439C28.5537 67.879 28.9976 70.1288 29.2969 72.4038C29.3041 72.4584 29.2637 72.5082 29.2067 72.5151C29.1517 72.5217 29.1013 72.4859 29.0914 72.4344L29.0908 72.4313C28.878 71.3115 28.6426 70.1916 28.3851 69.0784C28.1328 67.9636 27.8666 66.8519 27.5876 65.7431L27.1637 64.0812L26.7202 62.424C26.5728 61.8715 26.4194 61.3205 26.2632 60.7701L26.1471 60.3572C26.1086 60.2194 26.0623 60.0888 26.0204 59.9543C25.9763 59.8211 25.9397 59.6854 25.8896 59.5541L25.7372 59.1611C25.328 58.1123 24.7247 57.1412 24.0214 56.2463C23.6594 55.8061 23.2807 55.3759 22.8603 54.9829L22.7057 54.8327L22.5451 54.6884C22.4375 54.5926 22.3325 54.4941 22.2228 54.4004C22.0007 54.2159 21.7808 54.0286 21.5482 53.8555C20.6313 53.1464 19.6241 52.5448 18.5776 52.017C17.5308 51.4907 16.4295 51.0459 15.2993 50.7166L15.2941 50.715C15.25 50.7022 15.2251 50.6575 15.2385 50.6153C15.2516 50.5743 15.2961 50.5507 15.339 50.561Z" fill="white"/>
<path d="M29.3462 81.0471C31.3175 83.8181 31.0643 85.3686 31.1249 86.6817C31.1356 86.9149 31.149 87.2445 31.1772 87.6338H31.7155C31.6056 87.0992 31.5277 86.5603 31.4997 86.0317C31.308 82.4048 30.4535 76.2146 27.1868 72.5116C23.9202 68.8086 20.3429 68.4708 15.8354 71.8371C12.0791 74.6424 9.73602 76.0581 8.36186 76.3213C8.02164 76.3864 7.84802 76.7542 8.01359 77.0462C8.8949 78.6002 11.3867 82.1697 15.5705 81.9184C20.9072 81.5978 27.375 78.2762 29.3462 81.0471Z" fill="url(#paint11_linear_12145_81221)"/>
<path opacity="0.5" d="M17.3615 76.2983C17.6567 76.0292 17.9695 75.7868 18.2922 75.5528C18.6148 75.3196 18.9474 75.0974 19.2935 74.8947C19.9834 74.4868 20.7197 74.1387 21.5037 73.8989C21.8958 73.7804 22.2997 73.6891 22.7128 73.6387C23.1258 73.5908 23.5479 73.5842 23.9668 73.634C24.071 73.6502 24.1763 73.6597 24.2796 73.6819C24.382 73.705 24.488 73.7239 24.5875 73.7511L25.1758 73.9258L25.7514 74.1401L26.3094 74.3968C27.0407 74.7658 27.7024 75.2643 28.2529 75.8518C28.8078 76.4374 29.2418 77.1124 29.599 77.8115L29.733 78.0741C29.779 78.1611 29.8124 78.2532 29.8527 78.3424C29.9286 78.5226 30.0103 78.7008 30.0811 78.8825L30.2791 79.4322C30.3492 79.6141 30.3939 79.8032 30.4506 79.9887C30.6743 80.732 30.8283 81.4899 30.9614 82.2485C30.9688 82.2908 30.939 82.3309 30.8948 82.338C30.8526 82.3448 30.8125 82.3191 30.8025 82.2799L30.8019 82.2774C30.6139 81.534 30.4331 80.7895 30.1746 80.0693C30.0574 79.7054 29.9087 79.3534 29.7705 78.9982C29.696 78.8228 29.611 78.6518 29.532 78.4786C29.4902 78.393 29.4552 78.3042 29.408 78.2213L29.2704 77.971C28.9065 77.3029 28.4646 76.6768 27.9369 76.1293C27.4088 75.5818 26.7822 75.13 26.0958 74.784L25.5696 74.5452L25.0243 74.3454L24.4642 74.1823C24.3712 74.157 24.28 74.1403 24.1879 74.1186C24.096 74.0979 24.0012 74.0894 23.908 74.0739C23.5321 74.0267 23.1476 74.0295 22.7657 74.0712C22.3833 74.1104 22.0026 74.1875 21.6288 74.2922C20.8799 74.501 20.1579 74.8125 19.4642 75.1752C19.1187 75.3591 18.7764 75.5513 18.444 75.7595C18.1128 75.9679 17.7854 76.188 17.4735 76.4192L17.4714 76.4207C17.4345 76.4481 17.3815 76.4416 17.353 76.4063C17.3263 76.3733 17.3308 76.3265 17.3615 76.2983Z" fill="white"/>
<path d="M29.4585 15.0375C29.4585 12.1982 31.8625 9.89648 34.8279 9.89648H80.4899C83.009 9.89648 85.0863 11.7867 85.2143 14.1955L88.5848 77.5803C88.6851 79.4653 87.1353 81.0553 85.1643 81.0896L32.8299 82.0002C30.9779 82.0325 29.4585 80.6039 29.4585 78.8304V15.0375Z" fill="url(#paint12_linear_12145_81221)"/>
<path d="M33.1992 10.8724C33.1936 9.96394 34.0281 9.26086 34.9682 9.38295C41.2038 10.1926 62.6462 12.6966 80.3746 11.3936C81.1831 11.3342 81.8847 11.9207 81.9277 12.696L85.4619 76.3633C85.5103 77.2363 84.8141 77.9828 83.9026 78.0344C76.4464 78.4569 45.7394 80.0901 34.7867 78.9917C34.1201 78.9248 33.6141 78.3875 33.6101 77.7458L33.1992 10.8724Z" fill="#91B3FA"/>
<path opacity="0.6" d="M33.9346 12.4642C33.9292 11.59 34.7322 10.9134 35.637 11.0309C41.6377 11.81 62.2727 14.2197 79.3335 12.9658C80.1116 12.9086 80.7868 13.473 80.8282 14.2191L84.2292 75.489C84.2759 76.3291 83.6059 77.0475 82.7287 77.0972C75.5533 77.5038 46.0025 79.0755 35.4622 78.0184C34.8207 77.9541 34.3338 77.4369 34.33 76.8194L33.9346 12.4642Z" fill="white"/>
<path opacity="0.78" d="M39.4893 17.1908L40.1266 30.3265C40.1478 30.7634 40.5164 31.1107 40.973 31.1231C43.5139 31.1917 51.4312 31.3766 55.9016 31.1534C56.4073 31.1282 56.8074 30.7365 56.8241 30.2519C56.9094 27.7885 57.0959 20.6185 56.5096 17.6213C56.4149 17.1371 55.9803 16.7823 55.4661 16.7651L40.448 16.2623C39.9065 16.2441 39.4642 16.6726 39.4893 17.1908Z" fill="white"/>
<path d="M48.1314 24.71C49.7602 24.71 51.0806 23.4458 51.0806 21.8863C51.0806 20.3267 49.7602 19.0625 48.1314 19.0625C46.5026 19.0625 45.1821 20.3267 45.1821 21.8863C45.1821 23.4458 46.5026 24.71 48.1314 24.71Z" fill="#2685CA"/>
<path d="M43.6524 30.1778H53.0483C53.6244 30.1778 53.9695 29.5688 53.6593 29.1041C52.8612 27.9084 51.1914 26.1518 48.2996 26.2311C45.5124 26.3075 43.8604 27.8942 43.0299 29.0321C42.6774 29.5152 43.0369 30.1778 43.6524 30.1778Z" fill="#2685CA"/>
<g opacity="0.6">
<path d="M77.0623 18.3356C77.3566 18.3356 77.5913 18.1373 77.5839 17.8949C77.5765 17.6525 77.3297 17.4501 77.0355 17.4451L60.567 17.1641C60.2728 17.1591 60.112 17.3725 60.2098 17.6382L60.2886 17.8524C60.3864 18.1182 60.7071 18.3356 61.0014 18.3356H77.0623Z" fill="white"/>
</g>
<g opacity="0.6">
<path d="M60.567 19.6114C60.2728 19.6064 60.112 19.8197 60.2098 20.0855L60.2886 20.2997C60.3864 20.5654 60.7071 20.7828 61.0014 20.7828H77.0623C77.3566 20.7828 77.5913 20.5846 77.5839 20.3422C77.5765 20.0998 77.3297 19.8974 77.0355 19.8924L60.567 19.6114Z" fill="white"/>
</g>
<g opacity="0.6">
<path d="M60.567 22.0938C60.2728 22.0888 60.112 22.3021 60.2098 22.5679L60.2886 22.7821C60.3864 23.0479 60.7071 23.2653 61.0014 23.2653H77.0623C77.3566 23.2653 77.5913 23.067 77.5839 22.8246C77.5765 22.5822 77.3297 22.3798 77.0355 22.3748L60.567 22.0938Z" fill="white"/>
</g>
<g opacity="0.6">
<path d="M78.6602 35.2488C78.9545 35.2488 79.1816 35.0505 79.1649 34.8081C79.1482 34.5658 78.8937 34.3657 78.5995 34.3635L40.0182 34.0723C39.7239 34.0701 39.6332 34.2486 39.8164 34.469L40.1317 34.848C40.315 35.0684 40.7057 35.2488 41 35.2488L78.6602 35.2488Z" fill="white"/>
</g>
<g opacity="0.6">
<path d="M40.0182 36.5215C39.7239 36.5193 39.6332 36.6978 39.8164 36.9182L40.1317 37.2973C40.315 37.5177 40.7057 37.698 41 37.698H78.6602C78.9545 37.698 79.1816 37.4997 79.1649 37.2573C79.1482 37.0149 78.8937 36.8149 78.5995 36.8126L40.0182 36.5215Z" fill="white"/>
</g>
<path d="M39.8455 40.6086C40.7732 40.5405 42.5104 40.509 43.4666 40.4962C43.8718 40.4907 44.2271 40.7536 44.3222 41.1307C44.5067 41.8633 44.7613 43.1352 44.7293 44.483C44.7196 44.8866 44.3744 45.2088 43.9527 45.2044L40.4239 45.168C39.99 45.1636 39.6297 44.8459 39.5893 44.4322L39.2791 41.2538C39.247 40.925 39.5017 40.6338 39.8455 40.6086Z" fill="url(#paint13_linear_12145_81221)"/>
<g opacity="0.6">
<path d="M46.3726 41.9145C46.0786 41.9028 45.8738 42.1211 45.9175 42.3997L46.0029 42.9445C46.0466 43.2231 46.3232 43.4511 46.6174 43.4511H55.1876C55.4819 43.4511 55.7197 43.2206 55.716 42.9389L55.7142 42.8003C55.7105 42.5185 55.467 42.2784 55.173 42.2667L46.3726 41.9145Z" fill="white"/>
</g>
<path d="M59.0726 40.6086C60.0002 40.5405 61.7374 40.509 62.6936 40.4962C63.0988 40.4907 63.4542 40.7536 63.5492 41.1307C63.7337 41.8633 63.9883 43.1352 63.9563 44.483C63.9467 44.8866 63.6014 45.2088 63.1797 45.2044L59.651 45.168C59.217 45.1636 58.8567 44.8459 58.8164 44.4322L58.5062 41.2538C58.474 40.925 58.7287 40.6338 59.0726 40.6086Z" fill="url(#paint14_linear_12145_81221)"/>
<g opacity="0.6">
<path d="M65.5958 41.9145C65.3017 41.9028 65.0969 42.1211 65.1406 42.3997L65.2261 42.9445C65.2698 43.2231 65.5463 43.4511 65.8406 43.4511H74.4108C74.705 43.4511 74.9428 43.2206 74.9391 42.9389L74.9373 42.8003C74.9337 42.5185 74.6901 42.2784 74.3961 42.2667L65.5958 41.9145Z" fill="white"/>
</g>
<path d="M44.8267 53.2202C44.8238 53.2202 44.8208 53.2202 44.8178 53.2202L41.5616 53.1903C41.0964 53.186 40.7124 52.8795 40.6683 52.4775L40.3821 49.8617C40.3653 49.7081 40.4151 49.5564 40.5223 49.4342C40.6423 49.2975 40.8239 49.2117 41.0206 49.1988C41.2949 49.1809 41.6812 49.1493 42.0902 49.116C42.9514 49.0457 44.0233 48.9584 44.6263 48.9512C45.0639 48.9491 45.435 49.197 45.5382 49.5618C45.7078 50.1623 45.6929 51.299 45.6606 52.5099C45.6502 52.9032 45.277 53.2202 44.8267 53.2202ZM41.0377 49.4377C40.9084 49.4461 40.7903 49.501 40.7137 49.5883C40.6506 49.6602 40.6211 49.7484 40.6308 49.8367L40.917 52.4525C40.9477 52.7335 41.2259 52.9478 41.5641 52.9509L44.8203 52.9809C44.8224 52.9809 44.8246 52.9809 44.8268 52.9809C45.1423 52.9809 45.4036 52.768 45.4107 52.5038C45.4424 51.3113 45.4576 50.1938 45.2968 49.6243C45.2247 49.3691 44.9474 49.1915 44.6295 49.1906C44.0355 49.1977 42.9687 49.2847 42.1115 49.3546C41.7014 49.388 41.314 49.4196 41.0377 49.4377Z" fill="white"/>
<path opacity="0.6" d="M41.387 49.7075C42.0711 49.6627 43.5578 49.5182 44.2629 49.5098C44.5617 49.5063 44.8238 49.6791 44.8938 49.9272C45.0299 50.409 45.0119 51.3693 44.9883 52.2556C44.9812 52.521 44.7266 52.7329 44.4157 52.7301L41.8135 52.7061C41.4935 52.7032 41.2279 52.4943 41.1981 52.2222L40.9693 50.1318C40.9457 49.9156 41.1334 49.7241 41.387 49.7075Z" fill="white"/>
<g opacity="0.6">
<path d="M47.6864 51.4833C47.7806 51.8255 48.1054 52.063 48.475 52.0599L78.6029 51.814C78.9437 51.8112 79.2164 51.5421 79.2089 51.2159C79.2016 50.8987 78.9318 50.6448 78.6005 50.6433L48.4718 50.5117C47.94 50.5094 47.5507 50.9909 47.6864 51.4833Z" fill="white"/>
</g>
<path d="M41.5265 50.119C41.7682 49.9831 42.0793 50.0642 42.2158 50.2986L42.8581 51.4009C42.9224 51.5112 43.0906 51.5042 43.1447 51.389L44.7377 47.9934C44.8171 47.824 45.0806 47.8813 45.0777 48.0669C45.0614 49.1056 44.7736 51.0799 43.0403 52.7325C43.0403 52.7325 42.0851 52.377 41.3159 50.7597C41.2047 50.5261 41.2952 50.2489 41.5265 50.119Z" fill="url(#paint15_linear_12145_81221)"/>
<path d="M44.8267 59.9039C44.8238 59.9039 44.8208 59.9039 44.8178 59.9039L41.5616 59.874C41.0964 59.8697 40.7124 59.5632 40.6683 59.1611L40.3821 56.5453C40.3653 56.3917 40.4151 56.24 40.5223 56.1178C40.6423 55.9812 40.8239 55.8954 41.0206 55.8824C41.2949 55.8645 41.6812 55.833 42.0902 55.7997C42.9514 55.7294 44.0233 55.6421 44.6263 55.6349C44.6307 55.6349 44.6351 55.6348 44.6395 55.6348C45.0677 55.6348 45.4361 55.8844 45.5382 56.2455C45.7078 56.846 45.6929 57.9827 45.6606 59.1936C45.6502 59.5869 45.277 59.9039 44.8267 59.9039ZM41.0377 56.1213C40.9084 56.1297 40.7903 56.1847 40.7137 56.2719C40.6506 56.3438 40.6211 56.4321 40.6308 56.5203L40.917 59.1361C40.9477 59.4171 41.2259 59.6314 41.5641 59.6345L44.8203 59.6645C44.8224 59.6645 44.8246 59.6645 44.8268 59.6645C45.1423 59.6645 45.4036 59.4516 45.4107 59.1874C45.4424 57.9949 45.4576 56.8774 45.2968 56.3079C45.2246 56.0528 44.9434 55.8694 44.6295 55.8742C44.0354 55.8813 42.9686 55.9683 42.1115 56.0382C41.7014 56.0716 41.314 56.1032 41.0377 56.1213Z" fill="white"/>
<path opacity="0.6" d="M41.387 56.3892C42.0711 56.3444 43.5578 56.1999 44.2629 56.1915C44.5617 56.1879 44.8238 56.3607 44.8938 56.6088C45.0299 57.0906 45.0119 58.0509 44.9883 58.9372C44.9812 59.2027 44.7266 59.4146 44.4157 59.4117L41.8135 59.3878C41.4935 59.3849 41.2279 59.1759 41.1981 58.9038L40.9693 56.8135C40.9457 56.5973 41.1334 56.4058 41.387 56.3892Z" fill="white"/>
<g opacity="0.6">
<path d="M47.6864 58.1649C47.7806 58.5072 48.1054 58.7446 48.475 58.7416L78.6029 58.4957C78.9437 58.4929 79.2164 58.2238 79.2089 57.8975C79.2016 57.5803 78.9318 57.3264 78.6005 57.325L48.4718 57.1934C47.94 57.191 47.5507 57.6726 47.6864 58.1649Z" fill="white"/>
</g>
<path d="M41.5265 56.8006C41.7682 56.6648 42.0793 56.7459 42.2158 56.9802L42.8581 58.0825C42.9224 58.1929 43.0906 58.1859 43.1447 58.0706L44.7377 54.675C44.8171 54.5056 45.0806 54.5629 45.0777 54.7486C45.0614 55.7872 44.7736 57.7616 43.0403 59.4142C43.0403 59.4142 42.0851 59.0587 41.3159 57.4414C41.2047 57.2077 41.2952 56.9305 41.5265 56.8006Z" fill="url(#paint16_linear_12145_81221)"/>
<path d="M44.8267 66.5837C44.8238 66.5837 44.8208 66.5837 44.8178 66.5837L41.5616 66.5538C41.0964 66.5496 40.7124 66.2432 40.6683 65.841L40.3821 63.2252C40.3653 63.0716 40.4151 62.9198 40.5224 62.7976C40.6424 62.661 40.8239 62.5752 41.0206 62.5622C41.2949 62.5443 41.6812 62.5128 42.0902 62.4794C42.9514 62.4092 44.0233 62.3219 44.6264 62.3146C44.6308 62.3146 44.6352 62.3145 44.6395 62.3145C45.0677 62.3145 45.4361 62.5641 45.5382 62.9252C45.7078 63.5257 45.6929 64.6624 45.6606 65.8733C45.6502 66.2667 45.277 66.5837 44.8267 66.5837ZM41.0377 62.8011C40.9084 62.8096 40.7903 62.8645 40.7137 62.9517C40.6506 63.0236 40.6211 63.1118 40.6308 63.2002L40.917 65.816C40.9477 66.0971 41.2259 66.3113 41.564 66.3143L44.8202 66.3443C44.8223 66.3443 44.8245 66.3443 44.8267 66.3443C45.1423 66.3443 45.4035 66.1314 45.4106 65.8672C45.4424 64.6747 45.4576 63.5572 45.2967 62.9877C45.2246 62.7326 44.9434 62.5483 44.6294 62.554C44.0354 62.5611 42.9686 62.6481 42.1115 62.718C41.7014 62.7515 41.314 62.783 41.0377 62.8011Z" fill="white"/>
<path opacity="0.6" d="M41.387 63.0728C42.0711 63.028 43.5578 62.8835 44.2629 62.8751C44.5617 62.8715 44.8238 63.0443 44.8938 63.2924C45.0299 63.7742 45.0119 64.7345 44.9883 65.6208C44.9812 65.8863 44.7266 66.0982 44.4157 66.0953L41.8135 66.0714C41.4935 66.0684 41.2279 65.8595 41.1981 65.5874L40.9693 63.4971C40.9457 63.2809 41.1334 63.0894 41.387 63.0728Z" fill="white"/>
<g opacity="0.6">
<path d="M47.6864 64.8466C47.7806 65.1888 48.1054 65.4263 48.475 65.4232L78.6029 65.1773C78.9437 65.1745 79.2164 64.9054 79.2089 64.5791C79.2016 64.262 78.9318 64.008 78.6005 64.0066L48.4718 63.875C47.94 63.8727 47.5507 64.3542 47.6864 64.8466Z" fill="white"/>
</g>
<path d="M41.5265 63.4803C41.7682 63.3445 42.0793 63.4256 42.2158 63.6599L42.8581 64.7622C42.9224 64.8726 43.0906 64.8656 43.1447 64.7504L44.7377 61.3547C44.8171 61.1853 45.0806 61.2426 45.0777 61.4283C45.0614 62.4669 44.7736 64.4412 43.0403 66.0939C43.0403 66.0939 42.0851 65.7384 41.3159 64.1211C41.2047 63.8875 41.2952 63.6102 41.5265 63.4803Z" fill="url(#paint17_linear_12145_81221)"/>
<path d="M44.8267 73.2633C44.8238 73.2633 44.8208 73.2633 44.8178 73.2633L41.5616 73.2334C41.0964 73.2291 40.7124 72.9227 40.6683 72.5207L40.3821 69.9048C40.3653 69.7513 40.4151 69.5994 40.5224 69.4772C40.6424 69.3406 40.8239 69.2548 41.0206 69.2418C41.2949 69.2239 41.6812 69.1924 42.0902 69.1591C42.9514 69.0888 44.0233 69.0015 44.6264 68.9942C44.6308 68.9942 44.6352 68.9941 44.6395 68.9941C45.0677 68.9941 45.4361 69.2438 45.5382 69.6049C45.7078 70.2054 45.6929 71.3421 45.6606 72.5529C45.6502 72.9462 45.277 73.2633 44.8267 73.2633ZM41.0377 69.4807C40.9084 69.4891 40.7903 69.544 40.7137 69.6313C40.6506 69.7032 40.6211 69.7914 40.6308 69.8798L40.917 72.4956C40.9477 72.7766 41.2259 72.9909 41.564 72.9939L44.8202 73.0238C44.8223 73.0238 44.8245 73.0238 44.8267 73.0238C45.1423 73.0238 45.4035 72.811 45.4106 72.5468C45.4424 71.3543 45.4576 70.2368 45.2967 69.6673C45.2246 69.4122 44.9434 69.227 44.6294 69.2336C44.0354 69.2407 42.9686 69.3277 42.1115 69.3976C41.7014 69.431 41.314 69.4626 41.0377 69.4807Z" fill="white"/>
<path opacity="0.6" d="M41.387 69.7544C42.0711 69.7097 43.5578 69.5651 44.2629 69.5567C44.5617 69.5531 44.8238 69.726 44.8938 69.974C45.0299 70.4558 45.0119 71.4161 44.9883 72.3025C44.9812 72.5679 44.7266 72.7798 44.4157 72.7769L41.8135 72.753C41.4935 72.7501 41.2279 72.5412 41.1981 72.2691L40.9693 70.1787C40.9457 69.9625 41.1334 69.771 41.387 69.7544Z" fill="white"/>
<g opacity="0.6">
<path d="M47.6864 71.5262C47.7806 71.8685 48.1054 72.1059 48.475 72.1029L78.6029 71.857C78.9437 71.8542 79.2164 71.5851 79.2089 71.2588C79.2016 70.9416 78.9318 70.6877 78.6005 70.6863L48.4718 70.5547C47.94 70.5524 47.5507 71.0338 47.6864 71.5262Z" fill="white"/>
</g>
<path d="M41.5265 70.1639C41.7682 70.0281 42.0793 70.1091 42.2158 70.3435L42.8581 71.4458C42.9224 71.5561 43.0906 71.5492 43.1447 71.4339L44.7377 68.0383C44.8171 67.8689 45.0806 67.9262 45.0777 68.1119C45.0614 69.1505 44.7736 71.1248 43.0403 72.7774C43.0403 72.7774 42.0851 72.4219 41.3159 70.8046C41.2047 70.571 41.2952 70.2938 41.5265 70.1639Z" fill="url(#paint18_linear_12145_81221)"/>
<path d="M60.4894 1.25249C58.84 0.153874 57.4059 0.175643 56.3963 0.460876C55.4753 0.721047 54.8784 1.57236 54.966 2.4879L55.4014 7.03795L60.5823 7.47818C60.5823 7.47818 63.7241 3.40707 60.4894 1.25249ZM58.211 4.92327C57.4975 4.92327 56.9192 4.36951 56.9192 3.6864C56.9192 3.00329 57.4975 2.44949 58.211 2.44949C58.9245 2.44949 59.5029 3.00329 59.5029 3.6864C59.5029 4.36951 58.9245 4.92327 58.211 4.92327Z" fill="url(#paint19_linear_12145_81221)"/>
<path d="M55.9205 5.12369C55.8566 5.12369 55.8021 5.07706 55.7962 5.01484L55.7269 4.29023C55.7205 4.22442 55.7712 4.16621 55.84 4.16013C55.9101 4.15385 55.9696 4.20258 55.9758 4.2685L56.0452 4.99311C56.0515 5.05892 56.0009 5.11713 55.9321 5.12321C55.9282 5.12355 55.9243 5.12369 55.9205 5.12369ZM55.7847 3.70367C55.7207 3.70367 55.6663 3.65704 55.6603 3.59482L55.6077 3.04473C55.5242 2.1726 56.0974 1.36054 56.9705 1.11378C57.5888 0.939021 58.2259 0.914026 58.864 1.03931C58.9316 1.05252 58.9752 1.11585 58.9613 1.18061C58.9475 1.24527 58.8819 1.28664 58.8138 1.27377C58.2161 1.15664 57.6198 1.1799 57.0412 1.34332C56.2822 1.55781 55.784 2.26419 55.8566 3.02296L55.9093 3.57305C55.9156 3.63887 55.865 3.69708 55.7962 3.70316C55.7923 3.70353 55.7885 3.70367 55.7847 3.70367Z" fill="white"/>
<path d="M48.3315 9.98044V7.69284C48.3315 6.90316 49.0151 6.27068 49.8394 6.29771L66.3124 6.83809C67.0434 6.86206 67.6355 7.41457 67.6793 8.11367L67.8169 10.3117L48.3315 9.98044Z" fill="url(#paint20_linear_12145_81221)"/>
<path d="M54.4736 7.15735H53.7652C53.6961 7.15735 53.6401 7.10383 53.6401 7.03768C53.6401 6.97152 53.6961 6.91797 53.7652 6.91797H54.4736C54.5426 6.91797 54.5986 6.97149 54.5986 7.03768C54.5986 7.10383 54.5426 7.15735 54.4736 7.15735Z" fill="white"/>
<path d="M49.2246 9.25981C49.1556 9.25981 49.0996 9.20629 49.0996 9.1401V8.21468C49.0996 7.49964 49.7072 6.91797 50.454 6.91797H53.0585C53.1275 6.91797 53.1835 6.97149 53.1835 7.03768C53.1835 7.10383 53.1275 7.15735 53.0585 7.15735H50.454C49.8451 7.15735 49.3496 7.63171 49.3496 8.21464V9.14006C49.3496 9.20625 49.2936 9.25981 49.2246 9.25981Z" fill="white"/>
<path d="M72.1787 24.9223L68.3008 21.8948L64.4229 24.9223C64.7322 22.0746 64.8763 18.8975 64.7126 15.4497C64.6604 14.3516 64.58 13.2881 64.4768 12.2611C64.4635 12.1291 64.5091 11.9979 64.6023 11.8999C64.6954 11.8018 64.8275 11.7461 64.9659 11.7461C67.2152 11.7461 69.4644 11.7461 71.7137 11.7461C71.9746 11.7461 72.1902 11.9416 72.2038 12.1911C72.29 13.7685 72.3459 15.4007 72.3646 17.0847C72.3952 19.8317 72.3236 22.4488 72.1787 24.9223Z" fill="#001F5C"/>
<path d="M41.6187 10.5582C41.6584 9.76606 42.3408 9.14332 43.1691 9.14332L71.9752 9.14258C73.011 9.14254 73.8965 9.85622 74.0732 10.8334L74.0976 10.9683C74.2911 12.0386 73.4304 13.0176 72.2959 13.0176H42.7426C42.0636 13.0176 41.5225 12.474 41.5551 11.8247L41.6187 10.5582Z" fill="url(#paint21_linear_12145_81221)"/>
</g>
<g clip-path="url(#clip0_12145_81221)">
<path d="M73.8636 57.8125H72.6941C67.5451 57.8125 63.3711 61.988 63.3711 67.1387V74.3342C63.3711 79.4849 67.5451 83.6604 72.6941 83.6604H73.8636C79.0125 83.6604 83.1865 79.4849 83.1865 74.3342V67.1387C83.1865 61.988 79.0125 57.8125 73.8636 57.8125Z" fill="#545FAC"/>
<path d="M73.8636 57.8125H72.6941C67.5451 57.8125 63.3711 61.988 63.3711 67.1387V74.3342C63.3711 79.4849 67.5451 83.6604 72.6941 83.6604H73.8636C79.0125 83.6604 83.1865 79.4849 83.1865 74.3342V67.1387C83.1865 61.988 79.0125 57.8125 73.8636 57.8125Z" fill="url(#paint22_linear_12145_81221)"/>
<path d="M72.3283 57.8125H69.746C64.8785 57.8125 60.9326 61.7597 60.9326 66.6289V74.844C60.9326 79.7132 64.8785 83.6604 69.746 83.6604H72.3283C77.1958 83.6604 81.1417 79.7132 81.1417 74.844V66.6289C81.1417 61.7597 77.1958 57.8125 72.3283 57.8125Z" fill="#3F4781"/>
<path d="M63.1764 50.6309C63.1764 50.6309 60.3769 59.1891 59.521 62.7542" stroke="black" stroke-width="0.170197" stroke-miterlimit="10" stroke-linecap="round"/>
<path d="M75.0236 47.4891C75.0236 47.4891 73.3805 46.0513 73.3021 46.0187C73.2237 45.986 72.278 45.1494 71.1592 45.2769L73.4458 50.4595C73.4458 50.4595 72.5851 51.1833 72.7533 51.6228C72.9215 52.0624 73.5291 51.3418 73.8427 51.2095C74.1563 51.0771 74.6757 50.4661 74.8227 50.203C74.9697 49.94 75.0236 47.4891 75.0236 47.4891Z" fill="#BA6F4C"/>
<path d="M72.4272 47.0371C72.4272 47.0371 73.0201 48.3851 73.8221 48.7053" stroke="black" stroke-width="0.170197" stroke-miterlimit="10" stroke-linecap="round"/>
<path d="M71.4967 46.6367C71.4967 46.6367 77.46 54.5267 77.6527 59.3385C77.6527 59.3385 72.4098 68.0617 60.2905 61.4707L62.4547 50.8227L71.4967 46.6367Z" fill="black"/>
<path d="M72.2861 47.6953C72.2861 47.6953 75.8125 52.6982 78.3131 57.7028" stroke="black" stroke-width="0.170197" stroke-miterlimit="10" stroke-linecap="round"/>
<path d="M72.3637 57.7507C72.3637 57.7507 79.8656 56.308 83.3772 56.6919C83.3772 56.6919 85.5414 59.1428 86.358 60.7341L80.042 64.711C80.042 64.711 80.7802 74.493 78.2306 80.7965H54.4233C54.4233 80.7965 55.8084 67.3154 56.973 65.0639C57.6949 63.6686 58.3351 62.1229 61.7341 60.8779C65.133 59.6329 65.7259 58.4729 65.7259 58.4729L72.3637 57.7507Z" fill="#1B86E8"/>
<path d="M72.1221 57.8945C72.1221 57.8945 72.9669 57.7901 73.1806 59.1019" stroke="black" stroke-width="0.170197" stroke-miterlimit="10" stroke-linecap="round"/>
<path d="M65.6982 59.6172C65.6982 59.6172 64.728 60.4815 65.5202 61.818" stroke="black" stroke-width="0.170197" stroke-miterlimit="10" stroke-linecap="round"/>
<path d="M59.3311 66.0273L60.8696 68.0958" stroke="black" stroke-width="0.170197" stroke-miterlimit="10" stroke-linecap="round"/>
<path d="M68.1303 61.4529C66.4659 61.4529 66.0151 59.1247 66.0151 57.4598L66.0625 53.8652H72.0911V58.3731C72.0911 60.0413 69.7946 61.4529 68.1303 61.4529Z" fill="#BA6F4C"/>
<path d="M71.5276 53.8711H66.0625L66.0151 57.4656C66.0151 58.4835 66.1785 59.753 66.6962 60.5798C69.7326 60.0798 71.0654 57.0784 71.5276 53.8711Z" fill="black"/>
<path d="M74.8306 50.2009L85.372 61.3864C85.372 61.3864 87.5444 60.6087 88.8265 58.9356C90.1087 57.2625 87.399 54.382 83.8089 52.0733C80.2189 49.7646 74.8061 47.3105 74.8061 47.3105C74.8061 47.3105 74.7016 48.085 74.8306 50.2009Z" fill="#BA6F4C"/>
<path d="M77.5419 68.6875C77.5419 68.6875 76.9654 74.5613 71.7061 74.2427" stroke="black" stroke-width="0.170197" stroke-miterlimit="10" stroke-linecap="round"/>
<path d="M63.7209 56.6114C63.9194 56.9262 63.9912 57.3045 63.9218 57.6702C63.8205 58.3401 63.3795 58.8286 62.9418 58.7616C62.5041 58.6946 62.2231 58.0982 62.3244 57.4284C62.3665 57.0736 62.5332 56.7453 62.7948 56.502" stroke="white" stroke-width="0.170197" stroke-miterlimit="10" stroke-linecap="round"/>
<path d="M61.0569 49.5529C61.0569 49.5529 60.9132 59.1928 66.3358 59.8463C71.0529 60.4263 71.7911 52.5086 71.453 49.5055C71.1149 46.5025 69.7789 44.9209 66.0908 44.9781C60.6339 45.0679 61.0569 49.5529 61.0569 49.5529Z" fill="#BA6F4C"/>
<path d="M70.871 51.4016L71.0115 52.1499C71.0115 52.1499 74.0822 52.5649 74.8629 52.0747C74.8629 52.0747 73.1234 47.3822 71.9229 45.9657C70.7224 44.5491 69.0319 43.2224 65.2851 43.7518C61.5382 44.2812 60.6366 47.874 60.6366 47.874C60.6366 47.874 59.7383 50.3477 61.4059 53.2021C61.4059 53.2021 61.4223 49.9344 62.1426 48.9802C62.1426 48.9802 65.5938 52.8606 70.8645 51.4016" fill="black"/>
<path d="M72.3618 54.2382C72.5961 53.145 72.1796 52.1288 71.4317 51.9684C70.6837 51.808 69.8875 52.5641 69.6532 53.6573C69.4189 54.7505 69.8353 55.7667 70.5833 55.9272C71.3312 56.0876 72.1275 55.3314 72.3618 54.2382Z" fill="#BA6F4C"/>
<path d="M71.5847 53.29C71.5847 53.29 70.8676 52.6757 70.5508 53.8913C70.5508 53.8913 70.9738 54.3406 70.7386 54.7245C70.8573 54.7432 70.9787 54.721 71.0832 54.6616C71.1876 54.6023 71.2688 54.5093 71.3135 54.3978" stroke="black" stroke-width="0.170197" stroke-linecap="round" stroke-linejoin="round"/>
<path d="M71.3072 53.7608C71.2491 53.5518 71.1365 53.3621 70.981 53.2109" stroke="black" stroke-width="0.170197" stroke-linecap="round" stroke-linejoin="round"/>
<path d="M66.7485 54.5231C66.7485 54.7939 66.6327 55.0126 66.4712 55.024C66.3098 55.0354 66.1695 54.8151 66.1597 54.5443C66.1499 54.2734 66.2755 54.0548 66.437 54.0434C66.5985 54.032 66.7322 54.2539 66.7485 54.5231Z" fill="black"/>
<path d="M63.2217 55.0036C63.2314 55.2744 63.1075 55.493 62.9444 55.5044C62.7813 55.5159 62.6426 55.2956 62.6329 55.0248C62.6231 54.7539 62.7487 54.5353 62.9118 54.5239C63.0749 54.5124 63.2119 54.7327 63.2217 55.0036Z" fill="black"/>
<path d="M62.7627 53.6152C62.7627 53.6152 62.6371 54.1651 62.1348 54.0133" stroke="black" stroke-width="0.170197" stroke-miterlimit="10" stroke-linecap="round"/>
<path d="M66.7319 53.2161C66.7319 53.2161 66.0012 53.4559 65.5771 52.9746" stroke="black" stroke-width="0.170197" stroke-miterlimit="10" stroke-linecap="round"/>
<path d="M63.8619 55.8594C63.8619 55.8594 63.7378 56.3299 63.9795 56.4002C64.2213 56.4704 64.5447 56.5636 64.8485 56.3675C65.1523 56.1714 65.4593 56.2662 65.1751 55.8594" stroke="black" stroke-width="0.170197" stroke-miterlimit="10" stroke-linecap="round"/>
<path d="M71.2572 51.1372C65.1013 54.0243 62.0878 49.0605 62.0878 49.0605C62.0878 49.0605 61.8787 49.3644 63.2736 51.2418" stroke="black" stroke-width="0.170197" stroke-miterlimit="10" stroke-linecap="round"/>
<path d="M72.018 55.1484C72.2952 55.3638 72.4808 55.676 72.5374 56.0226C72.6615 56.65 72.428 57.2235 72.0147 57.3068C71.6015 57.3901 71.1638 56.949 71.0347 56.3265C70.9585 55.9987 71.0019 55.6545 71.1572 55.3559" stroke="white" stroke-width="0.170197" stroke-miterlimit="10" stroke-linecap="round"/>
<path d="M67.2231 58.3202C67.2231 58.3202 67.3308 57.7051 67.8756 57.7051" stroke="black" stroke-width="0.170197" stroke-miterlimit="10" stroke-linecap="round"/>
<path d="M80.9432 56.6309C80.9432 56.6309 80.4532 62.0504 85.376 61.3854L80.9432 56.6309Z" fill="#BA6F4C"/>
<path d="M80.9438 56.6309C80.9438 56.6309 82.4138 58.6667 83.9573 58.9559" stroke="black" stroke-width="0.170197" stroke-miterlimit="10" stroke-linecap="round"/>
<path d="M77.75 80.8429C77.75 80.8429 79.8489 73.9186 79.6251 64.6774C79.6251 64.6774 79.5189 64.6235 79.2217 64.4568C78.5511 64.0766 77.9546 63.5785 77.4609 62.9863" stroke="black" stroke-width="0.170197" stroke-miterlimit="10" stroke-linecap="round"/>
<path d="M84.1767 61.4883C84.1767 61.4883 80.5361 64.1989 79.623 64.6792" stroke="black" stroke-width="0.170197" stroke-miterlimit="10" stroke-linecap="round"/>
<path d="M73.1278 58.0723C73.1278 58.0723 74.0473 62.0328 69.1392 62.9526C64.9154 63.7451 64.8926 59.8973 64.8926 59.8973" stroke="black" stroke-width="0.170197" stroke-miterlimit="10" stroke-linecap="round"/>
<path d="M70.5034 60.7227C70.5034 60.7227 71.0751 60.9971 71.0522 62.2879" stroke="black" stroke-width="0.170197" stroke-miterlimit="10" stroke-linecap="round"/>
<path d="M71.4697 59.8887C71.4697 59.8887 72.0643 60.2677 72.0414 61.6255" stroke="black" stroke-width="0.170197" stroke-miterlimit="10" stroke-linecap="round"/>
<path d="M72.1221 58.7891C72.1221 58.7891 72.7852 59.173 72.7591 60.6582" stroke="black" stroke-width="0.170197" stroke-miterlimit="10" stroke-linecap="round"/>
<path d="M66.374 60.0801C66.374 60.0801 65.6472 61.0294 66.2401 62.4982" stroke="black" stroke-width="0.170197" stroke-miterlimit="10" stroke-linecap="round"/>
<path d="M66.9946 60.9473C66.9946 60.9473 66.6238 61.7642 67.3098 62.9553" stroke="black" stroke-width="0.170197" stroke-miterlimit="10" stroke-linecap="round"/>
<path d="M68.1479 61.5312C68.1479 61.5312 68.1055 62.4773 68.3456 63.023" stroke="black" stroke-width="0.170197" stroke-miterlimit="10" stroke-linecap="round"/>
<path d="M69.4351 61.3086C69.4351 61.3086 69.7617 61.8282 69.6931 62.7987" stroke="black" stroke-width="0.170197" stroke-miterlimit="10" stroke-linecap="round"/>
<path d="M71.8065 61.834C71.8065 61.834 70.0898 64.1116 67.0698 64.1116" stroke="black" stroke-width="0.170197" stroke-miterlimit="10" stroke-linecap="round"/>
<path d="M85.0698 85.2607H28.9424L36.1078 80.7871H92.2352L85.0698 85.2607Z" fill="#C6D3F7"/>
<path d="M44.0826 78.8807C43.4042 78.4351 42.6074 78.2039 41.7959 78.2173C40.6853 78.2059 39.1679 78.433 38.6665 78.4918C38.3578 78.5262 38.3529 78.054 37.4186 79.2892C37.0495 79.7793 36.9515 79.9002 36.9025 80.0685C36.8535 80.2368 36.9891 82.1566 37.4611 82.3053C37.4745 82.3086 37.4885 82.3086 37.5019 82.3053C37.5512 82.5064 37.6419 82.6951 37.7682 82.8592C37.8433 82.9556 38.2778 83.1517 38.4133 82.4295C38.4133 82.4295 38.5195 83.016 38.8462 83.2235C39.1728 83.431 39.3362 83.0389 39.3802 82.717C39.4227 82.9964 39.6334 83.4621 39.9241 83.3575C40.4958 83.1517 40.21 81.4786 40.21 81.4786L40.8796 80.2711L41.8286 80.495C41.8286 80.495 43.8098 81.3707 44.5758 80.2188C44.9335 79.6878 44.5742 79.2255 44.0826 78.8807Z" fill="#BA6F4C"/>
<path d="M38.3117 78.9316L37.3726 80.2812L37.5849 82.219" stroke="black" stroke-width="0.170197" stroke-miterlimit="10" stroke-linecap="round"/>
<path d="M39.0278 79.2109L38.2847 80.7288L38.4219 82.4231" stroke="black" stroke-width="0.170197" stroke-miterlimit="10" stroke-linecap="round"/>
<path d="M40.0437 79.4961L39.3364 80.9306L39.3854 82.4697" stroke="black" stroke-width="0.170197" stroke-miterlimit="10" stroke-linecap="round"/>
<path d="M42.8105 80.4662C42.8105 80.4662 41.7456 81.5805 42.0461 82.0478C42.3467 82.5151 44.9208 80.3665 44.4014 80.1084C43.6386 79.7293 42.8105 80.4662 42.8105 80.4662Z" fill="#BA6F4C"/>
<path d="M42.2695 80.0117C42.3954 80.0908 42.4899 80.2112 42.5366 80.3523C42.5833 80.4935 42.5794 80.6465 42.5256 80.7851" stroke="black" stroke-width="0.170197" stroke-miterlimit="10" stroke-linecap="round"/>
<path d="M66.8315 81.2051L71.921 81.3195C71.9941 81.3212 72.0636 81.3513 72.1148 81.4035C72.1661 81.4556 72.195 81.5257 72.1954 81.5988V82.0106C72.1951 82.0642 72.1796 82.1166 72.1507 82.1617C72.1218 82.2069 72.0806 82.2428 72.032 82.2655L68.1317 84.0202L67.0063 84.0676L66.8315 81.2051Z" fill="#8796FF"/>
<path d="M72.0296 81.5789L68.1293 83.3337L67.0039 83.3811V84.0706L68.1293 84.0232L72.0296 82.2684C72.0782 82.2458 72.1194 82.2098 72.1483 82.1647C72.1772 82.1195 72.1927 82.0671 72.193 82.0135V81.6018C72.1928 81.5528 72.1792 81.5048 72.1538 81.4629C72.125 81.5132 72.0818 81.5536 72.0296 81.5789Z" fill="#E1E7F7"/>
<path d="M67.4857 84.0694H44.1015C43.9178 84.0676 43.7406 84.0011 43.6011 83.8815C43.4616 83.762 43.3687 83.5971 43.3387 83.4158L40.2354 68.742C40.1472 68.2518 40.9247 67.6113 41.4098 67.6113H64.7924C64.976 67.6134 65.153 67.68 65.2925 67.7995C65.4319 67.919 65.5249 68.0837 65.5552 68.2649L68.2469 83.125C68.2697 83.2385 68.2672 83.3556 68.2397 83.468C68.2121 83.5805 68.1602 83.6855 68.0876 83.7756C68.0149 83.8657 67.9234 83.9388 67.8194 83.9895C67.7154 84.0403 67.6015 84.0675 67.4857 84.0694Z" fill="white"/>
<path d="M63.7045 68.6492L64.8854 67.6231C64.8546 67.6174 64.8235 67.6141 64.7923 67.6133H41.4162C40.9262 67.6133 40.1536 68.2554 40.2418 68.7439L40.6518 70.6817L49.8294 70.9497L63.7045 68.6492Z" fill="#8796FF"/>
<path d="M68.248 83.1239L65.6102 68.5645C65.4439 68.6489 65.2962 68.7656 65.1756 68.9078C65.055 69.0501 64.964 69.215 64.9079 69.3928C64.725 69.9631 64.8507 79.5866 64.9193 84.0667H67.4869C67.6024 84.0648 67.7162 84.0376 67.82 83.9869C67.9239 83.9362 68.0154 83.8634 68.088 83.7734C68.1606 83.6835 68.2125 83.5787 68.2402 83.4665C68.2679 83.3542 68.2705 83.2373 68.248 83.1239Z" fill="#E1E7F7"/>
<path d="M67.006 84.0667H43.6217C43.4409 84.0663 43.2659 84.0028 43.1269 83.887C42.9879 83.7713 42.8937 83.6106 42.8606 83.4328L40.1673 68.9632C40.1461 68.8512 40.1499 68.736 40.1784 68.6257C40.2069 68.5154 40.2593 68.4127 40.332 68.325C40.4047 68.2374 40.4959 68.1668 40.5989 68.1184C40.702 68.0699 40.8145 68.0449 40.9284 68.0449H64.3127C64.4938 68.0449 64.6692 68.1083 64.8085 68.2241C64.9478 68.3399 65.0423 68.5007 65.0754 68.6789L67.7688 83.1501C67.7894 83.262 67.7851 83.3771 67.7563 83.4872C67.7275 83.5973 67.6748 83.6997 67.602 83.7871C67.5292 83.8746 67.4381 83.945 67.3351 83.9933C67.2321 84.0416 67.1198 84.0667 67.006 84.0667Z" fill="#545FAC"/>
<path d="M53.9431 79.2242C54.891 78.7723 55.1683 77.3752 54.5626 76.1036C53.9568 74.832 52.6973 74.1675 51.7495 74.6193C50.8016 75.0712 50.5243 76.4683 51.13 77.7399C51.7358 79.0115 52.9953 79.676 53.9431 79.2242Z" fill="#7584F1"/>
<path d="M85.0698 85.2617H28.9424V86.425H85.0698V85.2617Z" fill="#7584F1"/>
<path d="M85.0698 86.424L92.2352 81.9488V80.7871L85.0698 85.2607V86.424Z" fill="#8AA5EB"/>
<path d="M64.0049 61.1133C64.0049 61.1133 65.3409 66.2322 68.1878 66.3221" stroke="black" stroke-width="0.170197" stroke-miterlimit="10" stroke-linecap="round"/>
<path d="M87.6137 73.4656C87.6137 73.4656 87.1237 73.2793 87.7493 72.067C88.3389 70.9151 88.9841 69.8335 90.4149 68.9512C90.4149 68.9512 90.2793 71.3285 89.394 72.2434C88.8955 72.7744 88.2882 73.1913 87.6137 73.4656Z" fill="url(#paint23_linear_12145_81221)"/>
<path d="M91.4135 73.6249C91.4135 73.6249 89.9272 74.6216 87.1914 74.7245C87.1914 74.7245 87.3106 74.3618 88.4605 73.7883C89.6104 73.2148 91.683 73.2556 91.4135 73.6249Z" fill="url(#paint24_linear_12145_81221)"/>
<path d="M91.4127 73.6221C91.4127 73.6221 89.4201 73.2953 87.1906 74.7217C87.0014 74.8877 86.8575 75.0991 86.7725 75.336" stroke="white" stroke-width="0.102118" stroke-miterlimit="10" stroke-linecap="round"/>
<path d="M90.357 75.676C89.8227 76.2697 89.1741 76.7494 88.45 77.0863C87.7259 77.4232 86.9412 77.6104 86.1431 77.6367C86.1431 77.6367 86.5073 76.4194 87.6571 75.8394C88.807 75.2594 90.6249 75.3068 90.357 75.676Z" fill="url(#paint25_linear_12145_81221)"/>
<path d="M90.3569 75.678C90.3569 75.678 88.4573 75.4901 86.1429 77.6386C85.9463 77.8463 85.7896 78.0883 85.6807 78.3526" stroke="white" stroke-width="0.102118" stroke-miterlimit="10" stroke-linecap="round"/>
<path d="M86.357 75.2985C86.357 75.2985 86.0172 75.6008 85.2708 75.2054C84.5244 74.81 84.0752 73.4392 83.4741 73.4457C83.4676 73.4457 84.9817 73.3706 86.357 75.2985Z" fill="url(#paint26_linear_12145_81221)"/>
<path d="M85.2046 80.0214C85.791 77.7621 86.598 75.566 87.6137 73.4646C87.6137 73.4646 87.8865 72.8323 88.8943 71.0694C89.902 69.3064 90.4149 68.9453 90.4149 68.9453" stroke="white" stroke-width="0.170197" stroke-miterlimit="10" stroke-linecap="round"/>
<path d="M83.6489 73.4531C83.6489 73.4531 85.1189 73.5544 86.357 75.2978C86.6591 75.7209 86.4419 76.2405 86.2622 76.6424" stroke="white" stroke-width="0.136158" stroke-miterlimit="10" stroke-linecap="round"/>
<path d="M83.3545 79.0156L84.065 82.9369C84.065 83.1771 84.8245 83.3715 85.7604 83.3715C86.6963 83.3715 87.4541 83.1771 87.4541 82.9369L88.1646 79.0156H83.3545Z" fill="#545FAC"/>
<path d="M88.1646 79.0166C88.1646 79.2568 87.0883 79.4512 85.7604 79.4512C84.4325 79.4512 83.3545 79.2568 83.3545 79.0166C83.3545 78.7765 84.4308 78.582 85.7604 78.582C87.0899 78.582 88.1646 78.7765 88.1646 79.0166Z" fill="black"/>
<path d="M72.0902 58.3789C72.0902 60.0438 69.7937 61.4555 68.1294 61.4555" stroke="black" stroke-width="0.170197" stroke-miterlimit="10" stroke-linecap="round"/>
<path d="M22.5121 36.1639C21.8953 36.1643 21.2977 35.9385 20.8226 35.5255L19.5045 34.3787C19.0562 33.9719 18.4841 33.7468 17.8915 33.7441H11.3376C11.0517 33.7501 10.7794 33.8736 10.5793 34.088C10.3791 34.3025 10.267 34.5907 10.2671 34.891V36.1945L10.2999 59.7196C10.3018 60.2354 10.4983 60.7293 10.8463 61.0932C11.1944 61.4572 11.6656 61.6616 12.1568 61.6616L44.7227 61.608C45.1058 61.603 45.4716 61.4397 45.7408 61.1535C46.01 60.8673 46.1609 60.4812 46.1609 60.079V37.6433C46.1609 37.2378 46.0075 36.8489 45.7343 36.5621C45.4612 36.2753 45.0908 36.1142 44.7045 36.1142L22.5121 36.1639Z" fill="#434343"/>
<path d="M42.3333 41.8564H35.732C35.4886 41.8564 35.2553 41.7549 35.0832 41.5743C34.9111 41.3936 34.8145 41.1486 34.8145 40.8931C34.8145 40.7668 34.8382 40.6417 34.8844 40.525C34.9305 40.4084 34.9982 40.3024 35.0834 40.2133C35.1687 40.1241 35.2698 40.0535 35.3812 40.0055C35.4925 39.9575 35.6117 39.9331 35.732 39.9336H42.3333C42.4536 39.9331 42.5728 39.9575 42.6841 40.0055C42.7954 40.0535 42.8966 40.1241 42.9819 40.2133C43.0671 40.3024 43.1348 40.4084 43.1809 40.525C43.2271 40.6417 43.2508 40.7668 43.2508 40.8931C43.2508 41.1486 43.1542 41.3936 42.9821 41.5743C42.81 41.7549 42.5766 41.8564 42.3333 41.8564Z" stroke="#F9F9F9" stroke-width="0.32044" stroke-miterlimit="10" stroke-linecap="round"/>
<path d="M20.4541 37.0234H44.8821" stroke="#F9F9F9" stroke-width="0.32044" stroke-miterlimit="10" stroke-linecap="round"/>
<g clip-path="url(#clip1_12145_81221)">
<g filter="url(#filter0_d_12145_81221)">
<path d="M21.9224 56.1562L33.1325 44.3867M21.9224 44.3867L33.1325 56.1562" stroke="#F9F9F9" stroke-width="1.64428" stroke-linecap="round" stroke-linejoin="round"/>
</g>
</g>
</g>
<defs>
<filter id="filter0_d_12145_81221" x="13.1237" y="41.5704" width="28.8073" height="29.3669" filterUnits="userSpaceOnUse" color-interpolation-filters="sRGB">
<feFlood flood-opacity="0" result="BackgroundImageFix"/>
<feColorMatrix in="SourceAlpha" type="matrix" values="0 0 0 0 0 0 0 0 0 0 0 0 0 0 0 0 0 0 127 0" result="hardAlpha"/>
<feOffset dy="5.98231"/>
<feGaussianBlur stdDeviation="3.9882"/>
<feComposite in2="hardAlpha" operator="out"/>
<feColorMatrix type="matrix" values="0 0 0 0 0.105668 0 0 0 0 0.278745 0 0 0 0 0.45 0 0 0 0.25 0"/>
<feBlend mode="normal" in2="BackgroundImageFix" result="effect1_dropShadow_12145_81221"/>
<feBlend mode="normal" in="SourceGraphic" in2="effect1_dropShadow_12145_81221" result="shape"/>
</filter>
<linearGradient id="paint0_linear_12145_81221" x1="107.036" y1="108.132" x2="22.6526" y2="7.7264" gradientUnits="userSpaceOnUse">
<stop stop-color="#DAE3FE"/>
<stop offset="1" stop-color="#E9EFFD"/>
</linearGradient>
<linearGradient id="paint1_linear_12145_81221" x1="60.0785" y1="23.0017" x2="85.5118" y2="27.6479" gradientUnits="userSpaceOnUse">
<stop stop-color="#5049E1"/>
<stop offset="1" stop-color="#29B0FA"/>
</linearGradient>
<linearGradient id="paint2_linear_12145_81221" x1="73.9881" y1="21.1066" x2="44.8616" y2="50.7008" gradientUnits="userSpaceOnUse">
<stop stop-color="#FDF53F"/>
<stop offset="1" stop-color="#D93C65"/>
</linearGradient>
<linearGradient id="paint3_linear_12145_81221" x1="77.3824" y1="24.4448" x2="48.2564" y2="54.0384" gradientUnits="userSpaceOnUse">
<stop stop-color="#FDF53F"/>
<stop offset="1" stop-color="#D93C65"/>
</linearGradient>
<linearGradient id="paint4_linear_12145_81221" x1="68.7302" y1="42.1433" x2="46.3257" y2="67.8902" gradientUnits="userSpaceOnUse">
<stop stop-color="#A737D5"/>
<stop offset="1" stop-color="#EF497A"/>
</linearGradient>
<linearGradient id="paint5_linear_12145_81221" x1="71.5047" y1="44.5566" x2="49.1002" y2="70.3035" gradientUnits="userSpaceOnUse">
<stop stop-color="#A737D5"/>
<stop offset="1" stop-color="#EF497A"/>
</linearGradient>
<linearGradient id="paint6_linear_12145_81221" x1="72.6343" y1="52.0617" x2="44.3571" y2="79.0784" gradientUnits="userSpaceOnUse">
<stop stop-color="#A737D5"/>
<stop offset="1" stop-color="#EF497A"/>
</linearGradient>
<linearGradient id="paint7_linear_12145_81221" x1="77.0589" y1="49.3889" x2="54.6544" y2="75.1358" gradientUnits="userSpaceOnUse">
<stop stop-color="#A737D5"/>
<stop offset="1" stop-color="#EF497A"/>
</linearGradient>
<linearGradient id="paint8_linear_12145_81221" x1="28.8213" y1="23.8959" x2="55.5859" y2="29.2056" gradientUnits="userSpaceOnUse">
<stop stop-color="#5049E1"/>
<stop offset="1" stop-color="#29B0FA"/>
</linearGradient>
<linearGradient id="paint9_linear_12145_81221" x1="44.0147" y1="47.3274" x2="33.5463" y2="79.2842" gradientUnits="userSpaceOnUse">
<stop stop-color="#A737D5"/>
<stop offset="1" stop-color="#EF497A"/>
</linearGradient>
<linearGradient id="paint10_linear_12145_81221" x1="22.2809" y1="47.6777" x2="11.5553" y2="47.5996" gradientUnits="userSpaceOnUse">
<stop stop-color="#4EC152"/>
<stop offset="0.991081" stop-color="#1B86E8"/>
</linearGradient>
<linearGradient id="paint11_linear_12145_81221" x1="21.3821" y1="69.5098" x2="9.62809" y2="69.3028" gradientUnits="userSpaceOnUse">
<stop stop-color="#4EC152"/>
<stop offset="0.991081" stop-color="#1B86E8"/>
</linearGradient>
<linearGradient id="paint12_linear_12145_81221" x1="59.0046" y1="77.7426" x2="55.1544" y2="-41.2908" gradientUnits="userSpaceOnUse">
<stop stop-color="#09005D"/>
<stop offset="1" stop-color="#1A0F91"/>
</linearGradient>
<linearGradient id="paint13_linear_12145_81221" x1="34.3821" y1="37.0324" x2="76.8354" y2="72.4759" gradientUnits="userSpaceOnUse">
<stop stop-color="#4F52FF"/>
<stop offset="1" stop-color="#4042E2"/>
</linearGradient>
<linearGradient id="paint14_linear_12145_81221" x1="41.8797" y1="28.0552" x2="84.333" y2="63.4987" gradientUnits="userSpaceOnUse">
<stop stop-color="#4F52FF"/>
<stop offset="1" stop-color="#4042E2"/>
</linearGradient>
<linearGradient id="paint15_linear_12145_81221" x1="51.0876" y1="37.1914" x2="35.5135" y2="64.9538" gradientUnits="userSpaceOnUse">
<stop stop-color="#4F52FF"/>
<stop offset="1" stop-color="#4042E2"/>
</linearGradient>
<linearGradient id="paint16_linear_12145_81221" x1="54.1316" y1="38.8987" x2="38.5575" y2="66.6612" gradientUnits="userSpaceOnUse">
<stop stop-color="#4F52FF"/>
<stop offset="1" stop-color="#4042E2"/>
</linearGradient>
<linearGradient id="paint17_linear_12145_81221" x1="56.691" y1="45.5946" x2="36.0511" y2="75.6513" gradientUnits="userSpaceOnUse">
<stop stop-color="#4F52FF"/>
<stop offset="1" stop-color="#4042E2"/>
</linearGradient>
<linearGradient id="paint18_linear_12145_81221" x1="60.2196" y1="42.3133" x2="44.6455" y2="70.0757" gradientUnits="userSpaceOnUse">
<stop stop-color="#4F52FF"/>
<stop offset="1" stop-color="#4042E2"/>
</linearGradient>
<linearGradient id="paint19_linear_12145_81221" x1="65.5838" y1="-5.27336" x2="45.7244" y2="22.0122" gradientUnits="userSpaceOnUse">
<stop stop-color="#2B3582"/>
<stop offset="1" stop-color="#150E42"/>
</linearGradient>
<linearGradient id="paint20_linear_12145_81221" x1="67.8888" y1="-3.59455" x2="48.0293" y2="23.691" gradientUnits="userSpaceOnUse">
<stop stop-color="#2B3582"/>
<stop offset="1" stop-color="#150E42"/>
</linearGradient>
<linearGradient id="paint21_linear_12145_81221" x1="65.2413" y1="-1.97632" x2="51.6888" y2="24.0146" gradientUnits="userSpaceOnUse">
<stop stop-color="#4F52FF"/>
<stop offset="1" stop-color="#4042E2"/>
</linearGradient>
<linearGradient id="paint22_linear_12145_81221" x1="63.9656" y1="65.2948" x2="88.8755" y2="66.7941" gradientUnits="userSpaceOnUse">
<stop offset="0.248" stop-color="#6F4BBB"/>
<stop offset="0.913" stop-color="#7F5BA8"/>
<stop offset="0.966319" stop-color="#F5D31D"/>
</linearGradient>
<linearGradient id="paint23_linear_12145_81221" x1="89.1175" y1="68.9512" x2="87.6415" y2="68.9381" gradientUnits="userSpaceOnUse">
<stop stop-color="#4EC152"/>
<stop offset="0.991081" stop-color="#1B86E8"/>
</linearGradient>
<linearGradient id="paint24_linear_12145_81221" x1="89.5912" y1="73.3516" x2="87.4942" y2="73.2645" gradientUnits="userSpaceOnUse">
<stop stop-color="#4EC152"/>
<stop offset="0.991081" stop-color="#1B86E8"/>
</linearGradient>
<linearGradient id="paint25_linear_12145_81221" x1="88.5398" y1="75.4004" x2="86.4432" y2="75.347" gradientUnits="userSpaceOnUse">
<stop stop-color="#4EC152"/>
<stop offset="0.991081" stop-color="#1B86E8"/>
</linearGradient>
<linearGradient id="paint26_linear_12145_81221" x1="85.1035" y1="73.4453" x2="83.6778" y2="73.4172" gradientUnits="userSpaceOnUse">
<stop stop-color="#4EC152"/>
<stop offset="0.991081" stop-color="#1B86E8"/>
</linearGradient>
<clipPath id="clip0_12145_81221">
<rect width="91.856" height="55.5152" fill="white" transform="translate(0.296875 31.752)"/>
</clipPath>
<clipPath id="clip1_12145_81221">
<rect width="22.4204" height="23.5389" fill="white" transform="translate(16.3169 38.502)"/>
</clipPath>
</defs>
</svg>
